<?xml version="1.0" encoding="UTF-8"?>
<!DOCTYPE svg PUBLIC "-//W3C//DTD SVG 1.1//EN" "http://www.w3.org/Graphics/SVG/1.1/DTD/svg11.dtd">
<!-- Creator: CorelDRAW X7 -->
<svg xmlns="http://www.w3.org/2000/svg" xml:space="preserve" width="13.4133in" height="11.4567in" version="1.1" style="shape-rendering:geometricPrecision; text-rendering:geometricPrecision; image-rendering:optimizeQuality; fill-rule:evenodd; clip-rule:evenodd"
viewBox="0 0 13413 11457"
 xmlns:xlink="http://www.w3.org/1999/xlink">
 <defs>
  <style type="text/css">
   <![CDATA[
    .fil0 {fill:none}
    .fil18 {fill:#003333;fill-rule:nonzero}
    .fil19 {fill:#006633;fill-rule:nonzero}
    .fil16 {fill:#009933;fill-rule:nonzero}
    .fil7 {fill:#263138;fill-rule:nonzero}
    .fil14 {fill:#26DDBF;fill-rule:nonzero}
    .fil11 {fill:#339966;fill-rule:nonzero}
    .fil4 {fill:#33CC33;fill-rule:nonzero}
    .fil23 {fill:#33CC66;fill-rule:nonzero}
    .fil6 {fill:#36464F;fill-rule:nonzero}
    .fil3 {fill:#445964;fill-rule:nonzero}
    .fil8 {fill:#99FF99;fill-rule:nonzero}
    .fil50 {fill:#B16667;fill-rule:nonzero}
    .fil2 {fill:#DFDFDF;fill-rule:nonzero}
    .fil34 {fill:#E6E6E6;fill-rule:nonzero}
    .fil31 {fill:#EBEBEB;fill-rule:nonzero}
    .fil27 {fill:#EFEFEF;fill-rule:nonzero}
    .fil49 {fill:#F28E8E;fill-rule:nonzero}
    .fil1 {fill:#F4F4F4;fill-rule:nonzero}
    .fil26 {fill:#F9F9F9;fill-rule:nonzero}
    .fil44 {fill:#FFA8A7;fill-rule:nonzero}
    .fil32 {fill:white;fill-rule:nonzero}
    .fil36 {fill:white;fill-rule:nonzero}
    .fil29 {fill:#009933;fill-rule:nonzero;fill-opacity:0.050980}
    .fil28 {fill:black;fill-rule:nonzero;fill-opacity:0.101961}
    .fil30 {fill:#003333;fill-rule:nonzero;fill-opacity:0.101961}
    .fil25 {fill:black;fill-rule:nonzero;fill-opacity:0.149020}
    .fil22 {fill:#33CC33;fill-rule:nonzero;fill-opacity:0.149020}
    .fil12 {fill:black;fill-rule:nonzero;fill-opacity:0.200000}
    .fil9 {fill:#003333;fill-rule:nonzero;fill-opacity:0.200000}
    .fil37 {fill:#009933;fill-rule:nonzero;fill-opacity:0.200000}
    .fil42 {fill:white;fill-rule:nonzero;fill-opacity:0.200000}
    .fil13 {fill:black;fill-rule:nonzero;fill-opacity:0.301961}
    .fil10 {fill:#003333;fill-rule:nonzero;fill-opacity:0.301961}
    .fil45 {fill:black;fill-rule:nonzero;fill-opacity:0.349020}
    .fil43 {fill:black;fill-rule:nonzero;fill-opacity:0.400000}
    .fil41 {fill:#003333;fill-rule:nonzero;fill-opacity:0.400000}
    .fil40 {fill:#006633;fill-rule:nonzero;fill-opacity:0.400000}
    .fil24 {fill:white;fill-rule:nonzero;fill-opacity:0.400000}
    .fil46 {fill:#009933;fill-rule:nonzero;fill-opacity:0.450980}
    .fil33 {fill:black;fill-rule:nonzero;fill-opacity:0.501961}
    .fil35 {fill:#339966;fill-rule:nonzero;fill-opacity:0.501961}
    .fil38 {fill:#99FF99;fill-rule:nonzero;fill-opacity:0.501961}
    .fil39 {fill:white;fill-rule:nonzero;fill-opacity:0.501961}
    .fil48 {fill:#003333;fill-rule:nonzero;fill-opacity:0.549020}
    .fil21 {fill:#339966;fill-rule:nonzero;fill-opacity:0.600000}
    .fil17 {fill:#33CC66;fill-rule:nonzero;fill-opacity:0.600000}
    .fil20 {fill:#33CC66;fill-rule:nonzero;fill-opacity:0.701961}
    .fil47 {fill:#99FF99;fill-rule:nonzero;fill-opacity:0.701961}
    .fil15 {fill:#33CC66;fill-rule:nonzero;fill-opacity:0.800000}
    .fil5 {fill:#99FF99;fill-rule:nonzero;fill-opacity:0.800000}
   ]]>
  </style>
 </defs>
 <g id="Layer_x0020_1">
  <metadata id="CorelCorpID_0Corel-Layer"/>
  <g id="_770821936">
   <rect class="fil0" width="13413" height="11457"/>
   <g>
    <path class="fil1" d="M11131 5183c2443,1435 2443,3762 0,5197 -2444,1435 -6405,1435 -8848,0 -2444,-1435 -2444,-3762 0,-5197 2443,-1435 6404,-1435 8848,0z"/>
    <polygon class="fil2" points="3249,9790 809,8380 5362,5757 7802,7167 "/>
    <path class="fil2" d="M8258 8194c643,371 643,973 0,1343 -642,371 -1684,371 -2326,0 -642,-370 -642,-972 0,-1343 642,-370 1684,-370 2326,0z"/>
    <path class="fil2" d="M3416 9708l295 171c60,35 158,35 219,0l1734 -1001c60,-35 60,-92 0,-127l-295 -170c-61,-35 -159,-35 -219,0l-1734 1001c-61,35 -61,92 0,126z"/>
    <path class="fil2" d="M9193 9023c-699,-404 -699,-1059 0,-1463 699,-403 1833,-403 2533,0 699,404 699,1059 0,1463 -700,403 -1834,403 -2533,0z"/>
    <polygon class="fil3" points="11346,2020 11293,2051 9968,1286 10021,1255 "/>
    <g>
     <g>
      <g>
       <polygon class="fil4" points="10021,1255 11293,1990 11293,887 10021,153 "/>
      </g>
     </g>
    </g>
    <g>
     <g>
      <g>
       <polygon class="fil5" points="10021,1255 11293,1990 11293,887 10021,153 "/>
      </g>
     </g>
    </g>
    <path class="fil6" d="M9915 1317l1431 826 0 -1286 -1431 -826 0 1286zm53 -1195l0 0 1325 765 0 1164 -1325 -765 0 -1164z"/>
    <polygon class="fil7" points="9968,1286 10021,1255 10021,153 9968,122 "/>
    <polygon class="fil3" points="9915,31 9968,0 11399,826 11346,857 "/>
    <polygon class="fil7" points="11399,826 11346,857 11346,2143 11399,2112 "/>
    <path class="fil8" d="M11023 1519c49,28 90,98 90,155 0,57 -41,80 -90,51 -49,-28 -89,-97 -89,-154 0,-58 40,-81 89,-52z"/>
    <path class="fil9" d="M10300 451l674 389c18,11 34,37 34,58l0 2c0,22 -16,31 -34,20l-674 -388c-19,-11 -34,-37 -34,-59l0 -2c0,-22 15,-31 34,-20z"/>
    <g>
     <path class="fil9" d="M10193 635l887 511c19,11 34,34 34,51 0,17 -15,21 -34,11l-887 -513c-19,-10 -34,-33 -34,-50 0,-16 16,-21 34,-10z"/>
     <path class="fil9" d="M10193 757l887 512c19,10 34,33 34,50 0,17 -15,22 -34,11l-887 -512c-19,-11 -34,-34 -34,-50 0,-17 16,-22 34,-11z"/>
     <path class="fil9" d="M10193 879l887 512c19,11 34,33 34,50 0,17 -15,22 -34,11l-887 -512c-19,-11 -34,-33 -34,-50 0,-17 16,-22 34,-11z"/>
    </g>
    <path class="fil10" d="M10864 1597c-7,-5 -14,-11 -22,-20 -19,-21 -17,-39 -17,-52 0,-5 -8,-24 -12,-21 -12,7 -26,9 -39,15 -7,4 -22,15 -40,-10 -7,-10 -10,-21 -10,-31 9,-8 14,-20 12,-42 -1,-6 -11,-25 -14,-20 -4,6 -10,19 -11,37 -8,6 -19,8 -29,10 -6,1 -11,4 -18,4 -2,-1 -5,1 -8,-2 -6,-6 -5,-9 -6,-14 -1,-7 2,-11 3,-15 0,0 0,0 0,0 0,0 0,-1 0,-1 0,0 0,0 0,-1 0,-6 -7,-23 -11,-19 -12,14 -28,31 -52,26 -1,0 -2,-1 -3,-1 0,-4 -1,-8 -1,-12 -1,-9 -2,-18 -5,-29 -1,-6 -8,-19 -11,-18 -19,5 -34,20 -59,13 -2,0 -12,-5 -13,-6 -4,-7 2,-21 3,-23 3,-7 6,-13 9,-19 3,-3 6,-8 7,-15 1,-6 -11,-31 -14,-24 -1,3 -4,8 -8,16 -12,13 -33,22 -50,27 -19,6 -38,5 -69,-13 -8,-5 -22,-16 -31,-32 -7,-14 -8,-26 -8,-35 -1,-21 3,-38 8,-52 28,18 53,28 77,35 21,6 44,12 58,3 8,-5 13,-23 -6,-54 -14,-20 -31,-31 -42,-38 -15,-9 -30,-14 -42,-15 -25,-3 -42,13 -53,35 -2,4 -4,9 -6,14 -29,-19 -62,-49 -98,-96 -1,-2 -2,1 0,3 34,48 66,79 95,101 -8,28 -13,71 21,121 37,52 77,54 95,50 14,-2 26,-7 37,-17 1,0 2,0 3,0 -1,16 4,33 21,50 17,17 32,10 42,8 9,-2 17,-6 25,-9 1,17 4,38 19,52 14,14 27,3 34,0 6,-2 12,-4 17,-8 0,3 2,6 3,9 12,27 27,30 35,29 11,-2 24,-3 34,-7 3,10 8,21 15,33 19,31 37,36 48,34 13,-1 25,-8 35,-16 2,9 5,19 13,33 14,25 32,42 45,49 6,3 0,-16 -6,-20zm-415 -405l0 0c9,6 27,19 28,35 1,9 -7,11 -12,12 -14,4 -33,0 -51,-4 -21,-6 -42,-13 -65,-26 16,-36 47,-51 100,-17z"/>
    <polygon class="fil3" points="1902,2047 1955,2077 3280,1312 3227,1282 "/>
    <polygon class="fil11" points="3227,1282 1955,2016 1955,913 3227,179 "/>
    <polygon class="fil5" points="3227,1282 1955,2016 1955,913 3227,179 "/>
    <path class="fil6" d="M3333 57l-1431 826 0 1286 1431 -826 0 -1286zm-53 1255l0 0 -1325 765 0 -1164 1325 -764 0 1163z"/>
    <polygon class="fil7" points="3280,1312 3227,1282 3227,179 3280,149 "/>
    <polygon class="fil3" points="3333,57 3280,26 1849,852 1902,883 "/>
    <polygon class="fil7" points="1849,852 1902,883 1902,2169 1849,2138 "/>
    <path class="fil8" d="M2978 1096c49,-28 89,-5 89,52 0,57 -40,126 -89,155 -50,28 -90,5 -90,-52 0,-57 40,-126 90,-155z"/>
    <path class="fil12" d="M2255 863l673 -389c19,-11 34,-2 34,20l0 2c0,21 -15,48 -34,58l-673 390c-19,11 -34,2 -34,-20l0 -2c0,-22 15,-48 34,-59z"/>
    <path class="fil12" d="M2148 1170l887 -512c18,-11 34,-6 34,11 0,17 -16,39 -34,50l-888 512c-18,11 -33,6 -33,-11 0,-17 15,-39 34,-50z"/>
    <path class="fil12" d="M2148 1292l887 -512c18,-11 34,-6 34,11 0,17 -16,40 -34,50l-888 513c-18,10 -33,5 -33,-12 0,-17 15,-39 34,-50z"/>
    <path class="fil12" d="M2148 1414l887 -512c18,-10 34,-5 34,12 0,16 -16,39 -34,50l-888 512c-18,11 -33,6 -33,-11 0,-17 15,-40 34,-51z"/>
    <path class="fil13" d="M2819 1358c-7,4 -15,6 -23,6 -19,0 -17,-19 -16,-33 0,-6 -8,-15 -13,-7 -11,21 -26,40 -38,60 -8,12 -22,40 -40,36 -8,-1 -10,-9 -10,-20 8,-17 14,-35 11,-55 0,-6 -10,-13 -13,-5 -5,12 -11,32 -11,51 -8,15 -19,30 -29,43 -6,8 -12,17 -18,25 -2,1 -5,6 -8,7 -6,1 -6,-3 -6,-7 -1,-6 1,-13 3,-18 0,0 0,0 0,0 0,-1 0,-1 0,-2 0,0 0,0 0,0 0,-6 -8,-15 -11,-8 -12,30 -29,65 -52,87 -1,1 -2,2 -3,3 -1,-3 -1,-7 -2,-11 -1,-8 -1,-16 -4,-24 -1,-4 -8,-10 -12,-4 -19,27 -34,59 -59,81 -2,2 -12,9 -12,9 -4,-2 2,-24 3,-27 2,-10 5,-19 9,-29 3,-7 5,-15 7,-23 1,-7 -12,-19 -14,-9 -1,4 -4,14 -8,26 -12,26 -34,60 -50,84 -19,28 -39,50 -69,67 -8,4 -23,10 -31,4 -8,-5 -8,-17 -8,-25 -1,-21 3,-42 8,-61 27,-14 53,-34 77,-55 21,-18 44,-39 58,-64 8,-14 12,-38 -7,-46 -13,-5 -30,4 -41,10 -16,9 -30,20 -42,33 -26,27 -43,62 -53,97 -2,5 -4,12 -6,21 -30,14 -62,21 -98,16 -2,0 -2,4 -1,4 35,8 67,3 96,-9 -9,37 -14,86 21,96 37,10 76,-34 95,-59 14,-19 26,-38 37,-60 1,-1 2,-2 3,-4 -1,17 3,30 20,27 18,-3 33,-27 42,-40 9,-13 17,-26 25,-38 2,15 5,33 19,30 15,-3 27,-29 34,-39 6,-9 12,-19 17,-28 1,2 2,3 4,5 12,13 26,-1 34,-11 12,-15 24,-31 35,-48 3,8 7,14 15,17 19,9 36,-7 47,-21 14,-17 25,-37 36,-57 2,7 5,13 13,18 14,8 32,5 45,-3 5,-3 0,-16 -6,-13zm-415 74l0 0c8,-4 27,-12 28,3 0,9 -8,19 -12,26 -14,20 -33,38 -52,55 -20,18 -41,35 -64,49 16,-55 47,-106 100,-133z"/>
    <g>
     <polygon class="fil14" points="3213,6836 981,5547 5323,3042 7555,4330 "/>
    </g>
    <polygon class="fil15" points="3201,6839 969,5550 5311,3045 7543,4334 "/>
    <g>
     <polygon class="fil16" points="981,5547 981,8367 1098,8434 1098,8163 3095,9316 3095,9588 3213,9655 3213,6836 "/>
    </g>
    <polygon class="fil17" points="981,5547 981,8367 1098,8434 1098,8163 3095,9316 3095,9588 3213,9655 3213,6836 "/>
    <g>
     <polygon class="fil18" points="1098,8434 1216,8367 1216,8231 1098,8163 "/>
    </g>
    <polygon class="fil19" points="1098,8434 1216,8367 1216,8231 1098,8163 "/>
    <g>
     <polygon class="fil16" points="3213,9655 3330,9588 3330,7084 7437,4714 7437,7207 7555,7139 7555,4330 3213,6836 "/>
    </g>
    <polygon class="fil20" points="3213,9655 3330,9588 3330,7084 7437,4714 7437,7207 7555,7139 7555,4330 3213,6836 "/>
    <g>
     <polygon class="fil19" points="7437,7207 5279,5960 7320,4782 7437,4714 "/>
    </g>
    <g>
     <polygon class="fil21" points="7437,7207 5279,5960 7437,4714 "/>
    </g>
    <g>
     <polygon class="fil22" points="7437,7207 5279,5960 7437,4714 "/>
    </g>
    <g>
     <path class="fil12" d="M6282 4492c2,3 1,6 -3,9l-880 508c-3,1 -7,2 -11,2 -4,0 -8,-1 -11,-2l-1227 -709c-2,-1 -3,-3 -4,-4 -1,-2 -1,-5 1,-6 0,-1 1,-1 1,-2 1,0 1,-1 2,-1l879 -507c6,-4 16,-4 22,0l1228 708c0,1 0,1 1,1l0 1c1,0 2,1 3,2 0,0 0,0 -1,0z"/>
    </g>
    <path class="fil23" d="M4191 4238l0 21c0,6 5,15 11,18l1177 680c6,3 16,3 21,0l844 -487c6,-4 10,-12 10,-18l0 -22c0,-6 -4,-14 -10,-18l-1178 -680c-6,-3 -15,-3 -21,0l-843 487c-6,4 -11,12 -11,19z"/>
    <path class="fil24" d="M6245 4413c5,4 4,8 -1,11l-844 488c-3,1 -6,2 -10,2l0 45c4,0 7,0 10,-2l844 -487c6,-4 10,-12 10,-18l0 -22c0,-6 -4,-13 -9,-17z"/>
    <path class="fil25" d="M4200 4221c0,0 0,0 -1,0 0,0 0,1 0,1 -1,0 -1,0 -1,0 0,1 -1,1 -1,2l0 0c-3,3 -5,7 -6,11 0,1 0,2 0,3l0 21c0,7 5,15 11,18l1177 680c3,2 7,2 11,2l0 -45c-4,0 -8,-1 -11,-2l-1177 -680c-2,-2 -4,-3 -4,-5 -1,-1 -1,-4 1,-5 0,-1 1,-1 1,-1z"/>
    <g>
     <path class="fil7" d="M4510 3936c0,19 27,39 34,56 0,2 1,3 1,4 -3,12 -14,21 -17,29 0,2 -1,3 -1,5 0,3 0,14 0,16 0,4 1,7 2,11 -1,4 -1,8 -3,12 -3,9 -4,15 -4,20 0,3 0,13 0,16 0,9 4,12 8,14l48 27 353 -204 0 -16 -47 -27c-4,-2 -9,-4 -24,-5 -1,0 -2,0 -3,0 -8,1 -18,1 -32,3 -27,3 -42,2 -54,1 -4,0 -9,-1 -13,-1 -3,0 -7,1 -10,1 -20,2 -42,15 -82,9 -1,0 -1,0 -2,0 -29,-4 -63,-20 -96,-20 -1,0 -2,0 -3,0 -13,1 -26,4 -37,10 -13,8 -18,16 -18,24 0,2 0,13 0,15zm54 11l0 0c1,-3 4,-6 8,-8 3,-2 6,-3 9,-4 18,-5 45,-1 65,10 9,6 16,12 19,19 -2,3 -5,5 -9,8 -11,7 -30,8 -48,4 -9,-3 -18,-6 -25,-10 -10,-6 -16,-12 -19,-19z"/>
     <path class="fil6" d="M4860 3894c-1,0 -2,0 -3,0 -8,1 -18,1 -32,3 -27,3 -42,2 -54,1 -4,0 -9,-1 -13,-1 -3,0 -7,1 -10,1 -20,2 -42,15 -82,9 -1,0 -1,0 -2,0 -29,-4 -63,-20 -96,-20 -1,0 -2,0 -3,0 -13,1 -26,4 -37,10 -44,25 5,55 16,79 10,24 -12,37 -16,49 -3,12 6,18 -2,44 -8,26 -2,31 4,34l48 27 353 -204 -47 -27c-4,-2 -9,-4 -24,-5zm-265 199l0 0c-5,3 -13,2 -19,-1 -6,-4 -8,-9 -3,-12 4,-2 13,-2 19,2 6,3 8,9 3,11zm61 -121l0 0c-11,7 -30,8 -48,4 -9,-3 -18,-6 -25,-10 -24,-14 -28,-33 -11,-43 3,-1 6,-2 9,-3 18,-6 45,-2 65,9 23,14 28,33 10,43zm212 -36l0 0c-5,2 -14,2 -20,-2 -6,-3 -7,-8 -2,-11 4,-3 13,-2 19,1 6,4 7,9 3,12z"/>
    </g>
    <g>
     <path class="fil1" d="M5357 4838l734 -424c4,-2 7,-7 7,-11l0 -8c0,-4 -3,-9 -7,-11l-970 -560c-3,-2 -9,-2 -12,0l-734 424c-4,2 -7,6 -7,10l0 9c0,4 3,9 7,11l970 560c3,2 9,2 12,0z"/>
     <polygon class="fil2" points="5617,4521 5870,4375 5879,4380 5626,4526 "/>
     <polygon class="fil2" points="5312,4697 5566,4550 5575,4555 5322,4702 "/>
     <path class="fil26" d="M6093 4385c2,2 1,4 -2,6l-734 424c-2,1 -4,1 -6,1l0 23c2,0 4,0 6,-1l734 -424c4,-2 7,-7 7,-11l0 -8c0,-4 -2,-8 -5,-10z"/>
     <path class="fil2" d="M4373 4249c0,0 -1,1 -1,1 -1,1 -1,1 -1,1 -1,1 -1,2 -2,4 0,0 0,1 -1,2 0,0 0,1 0,1l0 9c0,4 3,9 7,11l970 560c1,1 4,1 6,1l0 -23c-2,0 -5,0 -6,-1l-970 -560c-3,-2 -4,-4 -2,-6z"/>
     <g>
      <g>
       <path class="fil6" d="M5408 4582c-2,3 1,6 3,9 0,4 -1,9 -3,12 -1,3 -2,7 -5,9 -4,2 -9,-1 -11,-2 -1,-1 -3,-1 -4,0 0,2 0,3 0,5 -2,-1 -3,-2 -4,-3 -1,-1 -3,-2 -5,-2 -1,-1 -3,-1 -3,0 -1,2 0,5 0,7 1,2 2,5 1,7 -1,3 -5,-1 -6,-2 -2,-2 -3,-5 -5,-7 0,-1 -4,0 -3,1 0,3 0,6 -1,9 0,5 -1,9 -3,14 0,1 -2,7 -6,7 -3,0 -4,-2 -5,-3 0,-1 1,-3 1,-4 1,-7 3,-14 0,-21 -1,-1 -2,-2 -4,-4 0,0 -2,0 -3,1 -3,2 -3,5 -3,8 0,3 1,6 1,8 1,3 1,6 3,9 0,1 0,2 1,3 -1,4 -2,8 -5,12 -4,4 -13,11 -20,6 -6,-3 -8,-9 -10,-13 0,-2 0,-3 -1,-5 4,-4 7,-8 10,-12 2,-4 2,-8 3,-12 1,-4 2,-10 0,-14 0,-2 -1,-3 -3,-4 -2,-1 -5,0 -7,1 -5,2 -6,7 -6,10 -1,5 -2,9 -2,14 0,6 0,12 2,18 -4,4 -8,8 -14,11 0,0 1,1 1,0 5,-3 10,-6 13,-9 0,0 0,0 0,0 2,5 4,11 9,15 2,2 5,4 9,4 5,0 9,-2 12,-3 7,-4 10,-10 12,-16 1,0 1,1 2,1 5,2 10,-1 12,-4 3,-4 4,-9 5,-14 0,-3 0,-5 1,-8 0,1 1,2 2,3 2,2 6,4 10,2 3,-1 2,-5 2,-7 0,-2 -1,-3 -1,-5 0,-1 -1,-1 -1,-2 4,2 5,5 11,4 1,0 1,0 2,0 0,-1 0,-2 0,-4 3,2 6,3 10,2 6,-1 8,-5 9,-8 2,-3 3,-7 3,-10 2,3 4,6 6,9 6,10 10,20 13,30 2,6 4,11 6,17 1,1 4,1 4,0 -4,-13 -8,-25 -14,-38 -3,-6 -7,-12 -11,-18 -1,-2 -2,-4 -3,-6 0,-3 -1,-6 -3,-8 0,-1 -3,-1 -4,0zm-102 51l0 0c0,-5 0,-9 0,-14 1,-3 1,-7 2,-10 1,-3 3,-7 8,-7 2,-1 3,1 4,2 1,4 1,9 0,14 -1,4 -2,8 -4,12 -2,4 -5,8 -8,12 -1,-3 -1,-6 -2,-9zm39 0l0 0c-1,-3 -2,-5 -2,-8 0,-2 -1,-6 1,-8 2,2 2,5 3,8 0,3 -1,6 -1,10 0,0 -1,1 -1,2 0,-2 0,-3 0,-4z"/>
       <path class="fil6" d="M5491 4532c-1,0 -3,0 -4,1 0,1 1,2 2,3 1,0 1,0 1,0 0,2 0,3 0,5 0,2 0,5 -1,8 0,1 0,2 -1,4 0,0 0,1 -1,1 0,0 0,1 0,1 -1,0 -3,-1 -3,-2 -2,0 -3,-1 -5,-1 -1,-1 -3,-1 -3,0 0,3 1,6 0,8 0,1 -1,2 -1,2 -1,0 -3,-2 -3,-2 -2,-1 -3,-2 -5,-3 -1,0 -3,0 -3,1 0,2 1,3 1,5 0,1 2,4 0,5 -2,1 -4,-1 -5,-4 0,-2 0,-4 -3,-6 -1,0 -3,0 -3,1 0,1 1,3 2,5 0,0 0,0 0,1 0,2 -1,5 -1,7 -1,4 -3,8 -7,11 -3,2 -7,1 -10,-1 2,-5 1,-10 0,-15 -2,-8 -8,-17 -19,-22 0,0 -1,0 -2,0 -3,1 -2,4 -2,6 1,2 2,5 3,8 3,5 6,11 10,17 2,2 4,5 8,7 -1,2 -2,4 -3,6 -1,1 0,1 1,1 1,-2 3,-4 3,-6 4,2 7,3 11,2 7,-2 9,-8 10,-12 1,-2 1,-4 1,-6 2,1 4,2 6,2 6,-1 4,-6 3,-10 1,1 2,2 4,3 2,0 5,0 6,-1 2,-1 2,-3 2,-4 0,-2 0,-3 0,-4 2,1 4,2 6,2 5,1 6,-3 6,-5 1,-3 2,-7 2,-10 0,0 0,-1 0,-1 0,0 0,0 0,0 3,2 6,5 8,8 3,4 6,9 8,13 -4,1 -8,3 -11,6 -4,3 -9,12 2,14 10,1 15,-6 16,-10 0,-3 -1,-6 -2,-9 3,0 6,-1 10,0 2,0 3,-2 0,-2 -4,0 -7,0 -11,0 -1,-2 -3,-4 -4,-7 -2,-3 -5,-6 -8,-9 -2,-2 -3,-4 -6,-6 0,-1 -2,-1 -3,-2 0,-1 -1,-3 -2,-4zm-60 42l0 0c-4,-4 -6,-9 -9,-14 -1,-3 -3,-5 -3,-8 -1,-1 -2,-4 0,-5 9,5 14,12 16,20 2,4 2,9 1,13 -2,-2 -4,-5 -5,-6zm78 3l0 0c-2,2 -6,3 -9,1 -3,-2 -1,-6 0,-8 2,-3 6,-6 11,-7 2,4 4,10 -2,14z"/>
      </g>
      <g>
       <path class="fil6" d="M5637 4460c-2,1 -2,3 -3,4 0,4 -1,7 -1,10 -2,-1 -3,-2 -6,-3 -1,0 -2,0 -2,0 -2,1 -3,2 -3,4 -3,-3 -6,-5 -10,-4 -5,1 -7,6 -8,8 -1,2 -1,3 -1,5 -2,-4 -3,-8 -4,-12 -2,-6 -5,-12 -10,-18 -3,-4 -9,-9 -16,-6 -3,2 -5,4 -6,6 -2,3 -3,6 -4,8 0,2 -1,3 -1,4 -3,-1 -6,-3 -9,-4 0,-1 -2,0 -1,0 3,2 7,4 10,6 0,4 0,8 1,12 1,4 2,9 4,13 0,1 1,2 3,3 2,1 5,0 6,-1 6,-4 4,-12 1,-17 -2,-4 -6,-7 -11,-10 0,-6 2,-12 7,-17 1,-1 2,-2 4,-2 2,0 4,1 5,2 3,2 4,4 6,6 4,5 5,11 7,16 2,6 4,11 7,16 0,1 0,2 0,2 0,5 -1,10 3,15 0,1 3,0 3,0 2,-5 0,-10 -2,-15 0,-1 0,-1 0,-1 0,-4 1,-8 2,-12 1,-1 2,-4 4,-5 2,-1 4,1 5,1 2,2 4,5 5,7 0,1 0,2 0,3 1,1 4,1 4,-1 0,0 0,-1 0,-1 -1,-1 -1,-3 -1,-4 0,-2 0,-3 2,-5 4,2 5,5 7,8 1,1 4,0 4,-1 -3,-4 -1,-9 0,-14 0,-1 1,-2 1,-4 1,1 2,3 2,4 1,3 1,5 2,8 1,3 3,5 4,8 2,6 5,11 9,16 4,6 8,12 14,17 1,0 4,0 3,-1 -5,-6 -10,-11 -14,-18 -4,-6 -8,-12 -10,-19 -2,-3 -3,-6 -4,-9 0,-2 0,-5 -3,-7 -1,-1 -4,-1 -5,-1zm-66 14l0 0c5,5 7,11 5,16 -1,1 -1,3 -2,4 -1,0 -1,0 -1,1 0,0 0,0 -1,0 -1,-1 -2,-3 -2,-4 -2,-3 -2,-7 -3,-11 -1,-3 -1,-6 -1,-10 2,2 4,3 5,4z"/>
       <path class="fil6" d="M5732 4430c-4,0 -8,0 -11,1 -2,-1 -3,-3 -5,-4 -4,-3 -8,-5 -12,-8 -1,0 -4,0 -4,1 2,4 3,7 4,11 0,2 0,4 -1,6 -1,1 -4,0 -5,-1 -1,0 -3,0 -3,1 -1,1 0,4 -1,4 0,0 -4,-2 -5,-2 -1,-1 -2,-1 -3,0 0,2 2,4 1,5 -2,0 -3,-1 -4,-2 -1,-1 -4,-1 -3,0 0,2 1,3 1,4 0,1 2,4 0,5 0,0 -1,-1 -2,-1 0,0 -1,-1 -2,-1 -1,-1 -2,-2 -4,-3 -1,0 -3,0 -3,1 0,2 1,4 1,6 0,1 0,2 0,4 0,0 0,2 -2,3 -4,1 -10,-11 -11,-12 -1,-1 -4,-1 -3,0 1,3 3,6 3,9 1,3 2,8 -4,9 -1,1 0,1 1,1 6,-1 7,-5 6,-8 0,-1 0,-1 0,-2 2,2 5,5 9,4 4,-1 4,-4 4,-6 0,-2 0,-4 0,-6 2,2 5,4 9,3 2,-1 2,-3 2,-4 0,-1 0,-2 -1,-3 1,0 1,1 2,1 1,0 2,0 2,0 3,-1 3,-3 2,-5 2,1 3,2 6,1 3,0 2,-2 2,-3 2,0 5,0 7,-1 2,-1 2,-3 3,-5 0,-3 -1,-6 -2,-10 1,1 3,2 4,3 3,2 6,4 8,7 -2,0 -3,1 -4,2 -2,2 -3,6 3,6 6,1 7,-3 7,-5 -1,-1 -1,-2 -2,-3 3,-1 6,-1 9,-1 2,0 4,-1 1,-2zm-12 8l0 0c-1,2 -3,2 -4,0 0,-1 1,-2 3,-4 0,1 0,1 0,1 1,1 1,2 1,3z"/>
       <path class="fil6" d="M5734 4355c2,6 4,11 6,17 1,5 2,11 3,16 0,6 1,11 2,17 0,0 0,0 0,0 -3,-4 -6,-7 -9,-11 -4,-3 -8,-7 -14,-10 -4,-1 -9,-2 -13,0 -2,1 -4,2 -5,3 0,0 -1,0 -1,0 -2,0 -3,0 -5,0 -2,0 -5,0 -6,-1 -1,0 -3,0 -2,1 3,2 9,1 13,2 0,0 0,0 0,0 -1,1 -2,3 -2,5 -1,3 -1,7 1,10 2,3 5,5 10,5 6,0 9,-4 9,-7 1,-4 -3,-9 -8,-12 -2,-1 -4,-1 -6,-2 1,-1 2,-2 3,-2 4,-3 8,-1 12,1 5,3 8,6 12,9 3,4 6,8 9,12 1,1 2,2 3,4 0,0 0,0 0,1 0,2 0,4 2,5 1,1 4,1 4,0 0,-2 -1,-5 -2,-7 -1,0 -1,0 -1,0 0,-3 -1,-5 -1,-8 -1,-6 -1,-11 -2,-17 -1,-10 -3,-21 -9,-31 0,0 -3,0 -3,0zm-18 42l0 0c2,3 3,7 -1,10 -4,2 -8,-1 -9,-3 -2,-3 -3,-6 -2,-9 0,-2 1,-4 2,-6 5,2 9,5 10,8z"/>
       <path class="fil6" d="M5850 4366c-6,-9 -11,-19 -22,-27 -1,-1 -4,-1 -3,1 1,4 4,9 4,13 -1,2 -1,3 -2,4 -1,1 -3,1 -4,2 -1,1 -2,2 -2,3 -1,-1 -3,-2 -4,-3 -1,-1 -4,-1 -4,0 0,2 0,4 1,6 0,1 0,3 -1,4 -3,-2 -5,-4 -7,-7 -1,-1 -4,0 -4,1 -1,2 0,5 0,7 0,2 1,3 0,4 0,1 0,3 -1,3 1,0 0,0 -1,0 0,0 -1,-1 -1,-1 -2,-2 -2,-3 -3,-5 -1,-2 -2,-5 -2,-7 0,-2 -4,-2 -4,0 0,7 2,14 1,21 -1,3 -2,7 -5,10 -1,2 -2,3 -4,4 -2,2 -6,4 -8,4 -3,0 -4,-3 -4,-4 0,-2 -1,-4 -1,-6 -1,-1 -1,-2 -1,-3 8,-6 11,-13 9,-21 0,-1 -2,-6 -7,-4 -2,0 -2,2 -3,3 0,2 0,3 -1,5 0,5 -1,9 -1,13 -1,2 -1,3 0,4 -1,1 -2,1 -3,2 -1,0 1,1 2,1 0,-1 0,-1 1,-1 0,1 0,2 0,3 1,2 1,5 2,7 3,4 10,2 14,0 6,-2 9,-6 11,-10 3,-5 3,-10 3,-16 0,1 1,1 2,2 2,1 6,2 8,0 2,-2 1,-5 1,-7 0,-1 0,-3 0,-4 2,2 3,3 6,4 1,1 2,1 2,1 3,-1 3,-4 4,-6 0,-1 -1,-2 -1,-4 1,1 3,2 5,3 1,0 3,0 3,-1 0,-1 -1,-3 0,-4 1,0 3,-1 4,-2 3,-1 3,-3 4,-5 0,-3 -1,-5 -2,-8 5,6 9,11 12,17 1,2 3,3 4,5 -6,2 -10,5 -12,9 -2,2 -3,5 -4,7 0,4 0,7 3,10 3,3 10,4 15,2 5,-1 8,-5 9,-8 2,-6 -3,-13 -7,-19 2,0 3,0 5,0 1,0 2,-1 0,-1 -2,-1 -4,-1 -6,-1zm-81 12l0 0c1,-3 1,-5 1,-8 1,-1 1,-2 1,-2 0,-1 1,-1 1,-2 0,0 0,1 0,1 1,0 1,1 1,2 1,3 1,6 1,9 -1,3 -3,6 -6,9 0,-3 1,-6 1,-9zm84 1l0 0c1,3 2,6 0,9 -1,2 -4,6 -9,6 -7,0 -8,-5 -9,-8 0,-2 0,-4 1,-6 2,-4 6,-9 12,-11 2,3 4,7 5,10z"/>
      </g>
     </g>
    </g>
    <g>
     <g>
      <g>
       <path class="fil2" d="M5183 3953l9 5c5,3 5,7 0,10l-589 340c-5,2 -12,2 -17,0l-9 -5c-4,-3 -4,-7 0,-10l590 -340c4,-3 12,-3 16,0z"/>
       <path class="fil2" d="M5235 3983l8 5c5,2 5,7 0,9l-589 341c-4,2 -12,2 -17,0l-8 -5c-5,-3 -5,-7 0,-10l589 -340c5,-3 12,-3 17,0z"/>
       <path class="fil2" d="M5286 4012l9 5c4,3 4,7 0,10l-590 340c-4,3 -12,3 -16,0l-9 -5c-5,-2 -5,-7 0,-9l589 -341c5,-2 13,-2 17,0z"/>
      </g>
     </g>
     <g>
      <g>
       <path class="fil2" d="M5400 4078l8 5c5,2 5,7 0,9l-589 341c-5,2 -12,2 -17,0l-8 -5c-5,-3 -5,-7 0,-10l589 -340c4,-3 12,-3 17,0z"/>
       <path class="fil2" d="M5451 4107l9 5c4,3 4,7 0,10l-590 340c-4,3 -12,3 -16,0l-9 -5c-5,-2 -5,-7 0,-9l589 -341c5,-2 12,-2 17,0z"/>
       <path class="fil2" d="M5502 4137l9 5c4,3 4,7 0,10l-589 340c-5,3 -13,3 -17,0l-9 -5c-4,-3 -4,-7 0,-10l590 -340c4,-3 12,-3 16,0z"/>
      </g>
     </g>
     <g>
      <g>
       <path class="fil2" d="M5616 4203l8 4c5,3 5,7 0,10l-589 340c-5,3 -12,3 -17,0l-8 -5c-5,-2 -5,-7 0,-9l589 -340c5,-3 12,-3 17,0z"/>
       <path class="fil2" d="M5667 4232l9 5c4,3 4,7 0,10l-590 340c-4,3 -12,3 -16,0l-9 -5c-4,-2 -4,-7 0,-9l590 -341c4,-2 12,-2 16,0z"/>
       <path class="fil2" d="M5718 4262l9 5c5,2 5,7 0,9l-589 341c-5,2 -12,2 -17,0l-9 -5c-4,-3 -4,-7 0,-10l590 -340c4,-3 12,-3 16,0z"/>
      </g>
     </g>
    </g>
    <g>
     <path class="fil6" d="M4623 4146c0,3 0,13 0,16 0,7 4,15 9,22l432 -250 0 -16c-13,-7 -28,-10 -42,-10 0,0 0,0 0,0 -10,0 -20,1 -29,6 -32,14 -41,18 -60,26 -5,3 -20,4 -29,-4 -1,0 -1,0 -1,0l-13 -12 -35 -33c0,0 -4,-5 -17,-5 0,0 0,0 0,0 -3,0 -6,0 -9,1 -9,1 -22,1 -36,-1 -15,-2 -30,-7 -39,-15 -15,-13 -37,-21 -60,-21 0,0 -1,0 -2,0 -14,0 -28,3 -40,10 -21,11 -30,29 -26,46 -3,14 2,28 15,41 6,5 9,11 10,18 -1,8 -4,15 -8,20 -4,4 -5,8 -5,11 0,3 0,13 0,15 0,6 4,8 4,8l40 37 13 12c1,1 1,1 2,2 -2,2 -3,4 -3,4l-53 41c-12,11 -18,21 -18,31zm116 -237l0 0c-2,6 -7,12 -15,16 -13,7 -31,7 -46,3 -6,-3 -12,-6 -17,-10 -4,-4 -7,-8 -8,-12 2,-7 7,-12 15,-17 2,-1 4,-1 6,-2 19,-7 43,-3 57,10 4,3 6,8 8,12z"/>
     <path class="fil3" d="M5022 3908c0,0 0,0 0,0 -10,0 -20,1 -29,6 -32,14 -41,18 -60,26 -5,3 -20,4 -29,-4 -1,0 -1,0 -1,0l-13 -12 -35 -33c0,0 -4,-5 -17,-5 0,0 0,0 0,0 -3,0 -6,0 -9,1 -9,1 -22,1 -36,-1 -15,-2 -30,-7 -39,-15 -15,-13 -37,-21 -60,-21 0,0 -1,0 -2,0 -14,0 -28,3 -40,10 -31,16 -36,48 -11,71 16,14 12,42 2,54 -11,12 -1,19 -1,19l40 37 13 12c10,8 -1,21 -1,21l-53 41c-22,20 -21,37 -9,53l432 -250c-13,-7 -28,-10 -42,-10zm-291 -27l0 0c15,14 12,34 -7,44 -13,7 -31,7 -46,3 -6,-3 -12,-6 -17,-10 -15,-14 -12,-34 7,-44 2,-1 4,-2 6,-3 19,-7 43,-3 57,10z"/>
    </g>
    <path class="fil12" d="M4286 4903l641 370 110 23c2,0 5,-3 3,-5l-34 -63 -641 -370c-21,-13 -95,35 -79,45z"/>
    <path class="fil19" d="M4357 4796c1,0 2,0 3,1l-6 -4c0,0 -1,0 -1,0l0 0c-1,-1 -1,-1 -2,-1l0 0c-1,0 -1,0 -1,0l-2 -1c0,0 -1,0 -2,0l0 0c-4,0 -8,2 -13,4 -16,10 -29,32 -29,51 0,3 0,5 1,7 0,1 0,1 0,2 0,0 0,0 0,0 0,1 0,1 1,2 0,2 1,3 2,4 0,1 0,1 1,1 0,0 0,0 0,0 0,1 0,1 1,1 0,0 0,1 1,1 0,0 1,1 1,1 0,0 0,0 0,0l7 4c-1,-1 -2,-1 -3,-2 5,1 11,0 17,-4 16,-9 29,-32 29,-51 0,-7 -2,-13 -5,-16zm-43 70l0 0c0,0 0,0 0,0 0,0 0,0 0,0z"/>
    <path class="fil27" d="M4972 5150l-41 72 -7 -4 -605 -349c-1,-1 -2,-1 -3,-2 -3,-4 -5,-10 -5,-17 0,-19 13,-41 29,-51 5,-2 9,-4 13,-4 2,0 3,0 4,1 1,0 2,0 3,1 0,0 1,0 1,0l0 0c0,0 0,0 0,0l611 353z"/>
    <path class="fil14" d="M4951 5152c17,-9 30,-2 30,17 0,19 -13,42 -30,51 -16,9 -29,2 -29,-17 0,-19 13,-41 29,-51z"/>
    <path class="fil2" d="M5014 5196c0,0 0,-1 0,-1l-38 -41c0,0 0,0 0,0l0 -1c0,0 -1,0 -1,0l0 -1 0 0c-6,-5 -14,-5 -24,0 -16,10 -29,32 -29,51 0,11 4,18 11,20l0 0 1 0c0,1 1,1 2,1l0 0c0,0 0,0 1,0l54 12c3,0 6,0 9,-2 10,-6 17,-19 17,-29 0,-4 -1,-7 -3,-9z"/>
    <path class="fil18" d="M4535 4928c0,0 0,0 -1,0l-1 0c-1,-1 -4,-1 -6,1 -6,3 -11,11 -11,18 0,3 1,5 3,6 0,0 0,0 0,0l1 1 446 257 29 -16 -460 -267z"/>
    <path class="fil18" d="M4925 5188l41 23 29 -16 -56 -33c-6,7 -11,16 -14,26z"/>
    <path class="fil16" d="M5029 5215l0 0 0 0 -34 -37c0,0 0,-1 -1,-1 -3,-4 -9,-4 -16,0 -12,6 -21,23 -21,36 0,7 3,12 8,14 0,0 0,0 0,0l1 0 50 11 0 0c2,1 4,0 6,-1 5,-3 9,-10 9,-16 0,-3 -1,-4 -2,-6z"/>
    <path class="fil28" d="M5029 5215l0 0 0 0 -34 -37c0,0 0,-1 -1,-1 -3,-4 -9,-4 -16,0 -12,6 -21,23 -21,36 0,7 3,12 8,14 0,0 0,0 0,0l1 0 50 11 0 0c2,1 4,0 6,-1 5,-3 9,-10 9,-16 0,-3 -1,-4 -2,-6z"/>
    <path class="fil4" d="M5031 5221c0,6 -4,13 -9,16 -2,1 -4,2 -6,1l0 0 -25 -5c-4,-1 -6,-5 -6,-11 0,-9 6,-21 15,-26 5,-3 9,-3 12,0l0 1 17 18 0 0c1,2 2,3 2,6z"/>
    <path class="fil28" d="M5022 5215c5,-3 9,0 9,6 0,6 -4,13 -9,16 -6,3 -10,1 -10,-5 0,-6 4,-14 10,-17z"/>
    <path class="fil26" d="M4424 4864c-2,-1 -5,-1 -8,1 -6,3 -10,11 -10,18 0,3 1,6 3,7l110 63c-2,-1 -3,-3 -3,-6 0,-7 5,-15 11,-18 2,-2 5,-2 6,-1l-109 -64z"/>
    <path class="fil1" d="M4427 4871c0,7 -5,15 -11,18 -3,2 -5,2 -7,1 -2,-1 -3,-4 -3,-7 0,-7 4,-15 10,-18 3,-2 6,-2 8,-1 1,1 3,4 3,7z"/>
    <path class="fil16" d="M4403 4827l0 0 0 -1c0,0 0,0 0,0l-44 -25c0,0 0,0 -1,0l0 -1 0 0c-5,-2 -11,-1 -18,3 -14,8 -26,29 -26,45 0,9 3,15 8,18l43 25c0,0 1,0 1,0l0 0 0 0c5,3 11,2 18,-2 15,-8 27,-29 27,-46 0,-8 -3,-14 -8,-16z"/>
    <path class="fil29" d="M4403 4827l0 0 0 -1c0,0 0,0 0,0l-44 -25c0,0 0,0 -1,0l0 -1 0 0c-5,-2 -11,-1 -18,3 -14,8 -26,29 -26,45 0,9 3,15 8,18l43 25c0,0 1,0 1,0l0 0 0 0c5,3 11,2 18,-2 15,-8 27,-29 27,-46 0,-8 -3,-14 -8,-16z"/>
    <path class="fil30" d="M4384 4828c15,-8 27,-2 27,15 0,17 -12,38 -27,46 -14,9 -26,2 -26,-15 0,-17 12,-37 26,-46z"/>
    <path class="fil3" d="M5043 5231l-18 -11 0 0c-1,0 -2,0 -3,1 -3,1 -5,5 -5,8 0,2 0,3 1,3l18 11c1,0 2,1 3,1 4,0 7,-3 7,-7 0,-3 -1,-5 -3,-6z"/>
    <path class="fil7" d="M5044 5232l0 0c0,0 -1,-1 -1,-1 0,0 0,0 0,0 -1,0 -2,0 -3,1 -3,1 -5,5 -5,8 0,2 1,3 2,3 0,0 0,0 0,0 0,0 0,0 0,0 1,1 2,1 2,1 4,0 7,-3 7,-7 0,-2 -1,-4 -2,-5z"/>
    <g>
     <path class="fil12" d="M2844 6082l469 272c15,8 38,8 53,0l1386 -799c14,-8 14,-22 0,-30l-469 -272c-15,-8 -38,-8 -53,0l-1386 799c-14,8 -14,22 0,30z"/>
     <g>
      <g>
       <path class="fil31" d="M4723 5477c0,-6 -3,-11 -11,-16l-440 -254c-15,-8 -38,-8 -53,0l-1344 778c-8,4 -11,9 -11,15 0,5 0,40 0,46 0,5 3,11 11,15l440 254c15,9 38,9 53,0l1344 -776c8,-4 11,-10 11,-15 0,-6 0,-42 0,-47z"/>
       <path class="fil32" d="M3315 6268l-440 -253c-15,-8 -15,-22 0,-30l1344 -778c15,-8 38,-8 53,0l440 254c15,9 15,22 0,31l-1344 776c-15,8 -38,8 -53,0z"/>
       <path class="fil2" d="M3340 6274l0 48c-9,-1 -18,-3 -25,-7l-440 -254c-8,-4 -11,-10 -11,-15l0 -46c0,5 3,11 11,15l440 253c7,4 16,6 25,6z"/>
      </g>
      <path class="fil14" d="M3342 6230c-1,0 -1,-1 -1,-1l-44 -25 59 -34 45 25 -59 35 0 0zm-69 -40l0 0c0,0 -1,0 -1,0l-43 -25 46 -27 45 25 -46 27 -1 0zm151 -8l0 0c0,0 -1,0 -1,0l-43 -26 46 -26 45 25 -46 27 -1 0zm-219 -31l0 0c0,0 -1,0 -1,0l-44 -26 76 -43 45 25 -75 44 -1 0zm138 -1l0 0c0,0 -1,0 -1,0l-43 -26 37 -21 45 25 -37 22 -1 0zm151 -9l0 0c0,0 -1,0 -1,0l-43 -25 46 -27 45 26 -46 26 -1 0zm-90 -26l0 0c-1,0 -1,0 -1,0l-44 -25 37 -22 45 26 -37 21 0 0zm-267 -4l0 0c-1,0 -1,0 -1,0l-44 -25 59 -34 45 25 -59 34 0 0zm427 -10l0 0c0,0 -1,0 -1,0l-43 -25 335 -194 45 25 -335 194 -1 0zm-260 -7l0 0c-1,0 -1,0 -1,0l-44 -26 37 -21 45 26 -37 21 0 0zm160 -14l0 0c0,0 -1,0 -1,0l-44 -25 37 -22 45 26 -36 21 -1 0zm-395 -8l0 0c-1,0 -1,0 -1,0l-44 -25 37 -22 45 26 -37 21 0 0zm150 -8l0 0c0,0 0,-1 -1,-1l-43 -25 37 -21 45 25 -37 22 -1 0zm145 -5l0 0c0,0 -1,0 -1,0l-44 -25 37 -22 45 26 -36 21 -1 0zm160 -14l0 0c0,0 0,0 -1,0l-43 -25 37 -21 45 25 -37 21 -1 0zm-395 -8l0 0c-1,0 -1,0 -1,0l-44 -25 37 -22 45 26 -36 21 -1 0zm151 -8l0 0c-1,0 -1,0 -1,0l-44 -26 37 -21 45 25 -37 22 0 0zm144 -5l0 0c0,0 0,0 -1,0l-43 -25 37 -22 45 26 -37 21 -1 0zm-438 0l0 0c-1,0 -1,0 -1,0l-44 -25 47 -27 45 25 -47 27 0 0zm599 -14l0 0c-1,0 -1,0 -1,0l-44 -25 37 -21 45 25 -37 21 0 0zm-396 -8l0 0c0,0 -1,0 -1,0l-43 -25 37 -21 45 25 -37 21 -1 0zm151 -8l0 0c0,0 -1,0 -1,0l-43 -25 37 -22 45 26 -37 21 -1 0zm145 -5l0 0c-1,0 -1,0 -1,0l-44 -25 37 -21 45 25 -37 21 0 0zm160 -14l0 0c0,0 -1,0 -1,0l-43 -25 37 -21 45 25 -37 21 -1 0zm-563 -6l0 0c-1,0 -1,-1 -1,-1l-44 -25 37 -21 45 25 -37 21 0 1zm168 -2l0 0c-1,0 -1,0 -1,0l-44 -25 37 -21 45 25 -37 21 0 0zm151 -8l0 0c-1,0 -1,0 -1,0l-44 -25 37 -22 45 26 -37 21 0 0zm144 -5l0 0c0,0 -1,0 -1,0l-43 -25 37 -21 45 25 -37 21 -1 0zm161 -13l0 0c-1,0 -1,-1 -1,-1l-44 -25 37 -21 45 25 -37 21 0 1zm-564 -7l0 0c0,0 -1,0 -1,-1l-43 -25 37 -21 45 25 -37 22 -1 0zm168 -2l0 0c0,0 -1,0 -1,0l-43 -25 36 -21 46 25 -37 21 -1 0zm151 -8l0 0c0,0 -1,0 -1,0l-44 -25 37 -22 45 26 -36 21 -1 0zm145 -5l0 0c-1,0 -1,0 -1,0l-44 -25 37 -21 45 25 -37 21 0 0zm160 -13l0 0c0,0 -1,0 -1,-1l-44 -25 37 -21 45 25 -36 22 -1 0zm-563 -7l0 0c-1,0 -1,0 -1,0l-44 -26 37 -21 45 25 -37 22 0 0zm168 -1l0 0c-1,0 -1,-1 -1,-1l-44 -25 37 -21 45 25 -37 21 0 1zm552 -4l0 0c0,0 -1,0 -1,0l-43 -26 46 -26 45 25 -46 27 -1 0zm-402 -5l0 0c0,0 0,0 -1,0l-43 -25 37 -21 45 25 -37 21 -1 0zm145 -4l0 0c0,0 -1,-1 -1,-1l-44 -25 37 -21 45 25 -36 22 -1 0zm160 -14l0 0c0,0 0,0 -1,0l-43 -26 37 -21 45 25 -37 22 -1 0zm-563 -7l0 0c0,0 -1,0 -1,0l-43 -25 36 -22 46 26 -37 21 -1 0zm168 -1l0 0c-1,0 -1,0 -1,-1l-44 -25 37 -21 45 25 -36 22 -1 0zm151 -9l0 0c-1,0 -1,0 -1,0l-44 -25 37 -21 45 25 -37 21 0 0zm411 -1l0 0c0,0 -1,0 -1,0l-43 -25 46 -27 45 25 -46 27 -1 0zm-267 -3l0 0c0,0 0,0 -1,0l-43 -26 37 -21 45 25 -37 22 -1 0zm161 -14l0 0c-1,0 -1,0 -1,0l-44 -25 37 -22 45 26 -37 21 0 0zm-396 -8l0 0c0,0 -1,0 -1,0l-43 -26 37 -21 45 25 -37 22 -1 0zm151 -9l0 0c0,0 -1,0 -1,0l-43 -25 37 -21 45 25 -37 21 -1 0zm145 -4l0 0c-1,0 -1,0 -1,0l-44 -25 37 -22 45 26 -37 21 0 0zm-437 -1l0 0c-1,0 -1,0 -1,0l-44 -25 37 -22 45 26 -37 21 0 0zm713 -1l0 0c0,0 -1,0 -1,0l-43 -25 46 -27 45 25 -46 27 -1 0zm-116 -12l0 0c0,0 -1,0 -1,0l-43 -25 37 -22 45 26 -37 21 -1 0zm-395 -8l0 0c-1,0 -1,0 -1,0l-44 -25 37 -22 45 26 -37 21 0 0zm151 -8l0 0c-1,0 -1,0 -1,-1l-44 -25 37 -21 45 25 -37 22 0 0zm144 -5l0 0c0,0 -1,0 -1,0l-43 -25 37 -22 45 26 -37 21 -1 0zm-437 -1l0 0c0,0 -1,0 -1,0l-43 -25 37 -22 45 26 -37 21 -1 0zm723 -6l0 0c0,0 -1,-1 -1,-1l-43 -25 59 -34 45 25 -59 35 -1 0zm-125 -7l0 0c-1,0 -1,0 -1,0l-44 -25 116 -67 46 25 -117 67 0 0zm-396 -8l0 0c0,0 -1,0 -1,0l-43 -25 36 -22 46 26 -37 21 -1 0zm151 -8l0 0c0,0 -1,0 -1,0l-44 -26 37 -21 45 25 -36 22 -1 0zm145 -5l0 0c-1,0 -1,0 -1,0l-44 -25 37 -22 45 26 -37 21 0 0zm-437 -1l0 0c-1,0 -1,0 -1,0l-44 -25 37 -22 45 26 -37 21 0 0zm202 -21l0 0c-1,0 -1,0 -1,0l-44 -25 37 -21 45 25 -37 21 0 0zm556 -5l0 0c-1,0 -1,-1 -1,-1l-44 -25 37 -21 45 25 -37 21 0 1zm-406 -3l0 0c0,0 0,0 -1,0l-43 -25 37 -22 45 26 -37 21 -1 0zm145 -5l0 0c0,0 -1,0 -1,0l-44 -25 34 -20c3,-1 4,-3 4,-6 0,-2 -1,-5 -4,-6l-57 -33 43 -25 113 65 -87 50 -1 0zm-437 -1l0 0c-1,0 -1,0 -1,0l-44 -25 37 -21 45 25 -36 21 -1 0zm202 -21l0 0c-1,0 -1,0 -1,0l-44 -25 37 -21 45 25 -37 21 0 0zm556 -5l0 0c-1,0 -1,-1 -1,-1l-44 -25 37 -21 45 25 -37 22 0 0zm-405 -3l0 0c-1,0 -1,0 -1,0l-44 -25 37 -22 45 26 -37 21 0 0zm-266 -21l0 0c-1,0 -1,0 -1,0l-44 -25 37 -21 45 25 -37 21 0 0zm175 -6l0 0c0,0 -1,0 -1,0l-43 -25 37 -21 45 25 -37 21 -1 0zm556 -5l0 0c0,0 -1,0 -1,0l-43 -26 37 -21 45 25 -37 22 -1 0zm-128 -5l0 0c-1,0 -1,0 -1,0l-44 -25 37 -21 45 25 -37 21 0 0zm-543 -19l0 0c0,0 -1,0 -1,0l-44 -25 37 -21 45 25 -36 21 -1 0zm176 -5l0 0c-1,0 -1,-1 -1,-1l-44 -25 66 -38 45 26 -66 38 0 0zm568 -13l0 0c0,0 0,-1 -1,-1l-43 -25 97 -56 45 25 -97 57 -1 0zm-398 -7l0 0c-1,0 -1,0 -1,0l-44 -25 37 -21 45 25 -37 21 0 0zm-286 -10l0 0c0,0 0,0 -1,0l-43 -25 37 -21 45 25 -37 21 -1 0zm616 -23l0 0c0,0 -1,0 -1,0l-43 -25 37 -22 45 26 -37 21 -1 0zm-270 -2l0 0c0,0 -1,0 -1,0l-43 -25 36 -21 46 25 -37 21 -1 0zm-129 -4l0 0c0,0 0,0 -1,0l-43 -26 37 -21 45 26 -37 21 -1 0zm-156 -5l0 0c-1,0 -1,-1 -1,-1l-44 -25 37 -21 45 25 -37 22 0 0zm744 -19l0 0c0,0 -1,0 -1,0l-43 -26 37 -21 45 25 -37 22 -1 0zm-128 -5l0 0c-1,0 -1,0 -1,0l-44 -25 37 -21 45 25 -37 21 0 0zm-270 -1l0 0c-1,0 -1,-1 -1,-1l-44 -25 37 -21 45 25 -37 21 0 1zm141 -3l0 0c-1,0 -1,0 -1,0l-44 -26 37 -21 45 25 -37 22 0 0zm-270 -2l0 0c-1,0 -1,0 -1,0l-44 -25 37 -22 45 26 -37 21 0 0zm-143 -13l0 0c-1,0 -1,0 -1,0l-44 -25 37 -22 45 26 -37 21 0 0zm731 -11l0 0c-1,0 -1,0 -1,0l-112 -65 37 -21 113 65 -37 21 0 0zm-129 -5l0 0c-1,0 -1,0 -1,0l-44 -25 37 -21 45 25 -36 21 -1 0zm-129 -4l0 0c0,0 -1,0 -1,0l-43 -26 37 -21 45 26 -37 21 -1 0zm-270 -2l0 0c0,0 -1,0 -1,0l-43 -25 37 -22 45 26 -37 21 -1 0zm142 -3l0 0c-1,0 -1,0 -1,0l-44 -25 37 -21 45 25 -37 21 0 0zm-285 -10l0 0c0,0 -1,0 -1,0l-44 -25 37 -22 45 26 -36 21 -1 0zm474 -20l0 0c-1,0 -1,0 -1,0l-44 -25 37 -22 45 26 -37 21 0 0zm-129 -5l0 0c0,0 -1,0 -1,0l-44 -25 37 -21 45 25 -36 21 -1 0zm-129 -4l0 0c0,0 0,0 -1,0l-43 -25 37 -22 45 26 -37 21 -1 0zm-156 -6l0 0c0,0 0,0 -1,0l-43 -25 37 -21 45 25 -37 21 -1 0zm474 -20l0 0c0,0 -1,0 -1,0l-112 -65 37 -21 114 65 -37 21 -1 0zm-129 -4l0 0c0,0 0,-1 0,-1l-44 -25 37 -21 45 25 -37 22 -1 0zm-128 -5l0 0c-1,0 -1,0 -1,0l-44 -25 37 -22 45 26 -37 21 0 0zm-161 -23l0 0c-1,0 -1,0 -1,0l-19 -11 37 -21 20 11 -36 21 -1 0zm221 -12l0 0c0,0 -1,0 -1,0l-43 -25 37 -22 45 26 -37 21 -1 0zm-161 -23l0 0c0,0 0,0 -1,0l-19 -11 37 -21 21 11 -37 21 -1 0zm222 -12l0 0c-1,0 -1,0 -1,0l-44 -25 37 -21 45 25 -37 21 0 0zm-161 -23l0 0c-1,0 -1,0 -1,0l-19 -11 37 -21 20 11 -37 21 0 0zm60 -35l0 0c0,0 -1,0 -1,0l-19 -11 37 -21 20 11 -36 21 -1 0z"/>
      <path class="fil33" d="M3342 6230c-1,0 -1,-1 -1,-1l-44 -25 59 -34 45 25 -59 35 0 0zm-69 -40l0 0c0,0 -1,0 -1,0l-43 -25 46 -27 45 25 -46 27 -1 0zm151 -8l0 0c0,0 -1,0 -1,0l-43 -26 46 -26 45 25 -46 27 -1 0zm-219 -31l0 0c0,0 -1,0 -1,0l-44 -26 76 -43 45 25 -75 44 -1 0zm138 -1l0 0c0,0 -1,0 -1,0l-43 -26 37 -21 45 25 -37 22 -1 0zm151 -9l0 0c0,0 -1,0 -1,0l-43 -25 46 -27 45 26 -46 26 -1 0zm-90 -26l0 0c-1,0 -1,0 -1,0l-44 -25 37 -22 45 26 -37 21 0 0zm-267 -4l0 0c-1,0 -1,0 -1,0l-44 -25 59 -34 45 25 -59 34 0 0zm427 -10l0 0c0,0 -1,0 -1,0l-43 -25 335 -194 45 25 -335 194 -1 0zm-260 -7l0 0c-1,0 -1,0 -1,0l-44 -26 37 -21 45 26 -37 21 0 0zm160 -14l0 0c0,0 -1,0 -1,0l-44 -25 37 -22 45 26 -36 21 -1 0zm-395 -8l0 0c-1,0 -1,0 -1,0l-44 -25 37 -22 45 26 -37 21 0 0zm150 -8l0 0c0,0 0,-1 -1,-1l-43 -25 37 -21 45 25 -37 22 -1 0zm145 -5l0 0c0,0 -1,0 -1,0l-44 -25 37 -22 45 26 -36 21 -1 0zm160 -14l0 0c0,0 0,0 -1,0l-43 -25 37 -21 45 25 -37 21 -1 0zm-395 -8l0 0c-1,0 -1,0 -1,0l-44 -25 37 -22 45 26 -36 21 -1 0zm151 -8l0 0c-1,0 -1,0 -1,0l-44 -26 37 -21 45 25 -37 22 0 0zm144 -5l0 0c0,0 0,0 -1,0l-43 -25 37 -22 45 26 -37 21 -1 0zm-438 0l0 0c-1,0 -1,0 -1,0l-44 -25 47 -27 45 25 -47 27 0 0zm599 -14l0 0c-1,0 -1,0 -1,0l-44 -25 37 -21 45 25 -37 21 0 0zm-396 -8l0 0c0,0 -1,0 -1,0l-43 -25 37 -21 45 25 -37 21 -1 0zm151 -8l0 0c0,0 -1,0 -1,0l-43 -25 37 -22 45 26 -37 21 -1 0zm145 -5l0 0c-1,0 -1,0 -1,0l-44 -25 37 -21 45 25 -37 21 0 0zm160 -14l0 0c0,0 -1,0 -1,0l-43 -25 37 -21 45 25 -37 21 -1 0zm-563 -6l0 0c-1,0 -1,-1 -1,-1l-44 -25 37 -21 45 25 -37 21 0 1zm168 -2l0 0c-1,0 -1,0 -1,0l-44 -25 37 -21 45 25 -37 21 0 0zm151 -8l0 0c-1,0 -1,0 -1,0l-44 -25 37 -22 45 26 -37 21 0 0zm144 -5l0 0c0,0 -1,0 -1,0l-43 -25 37 -21 45 25 -37 21 -1 0zm161 -13l0 0c-1,0 -1,-1 -1,-1l-44 -25 37 -21 45 25 -37 21 0 1zm-564 -7l0 0c0,0 -1,0 -1,-1l-43 -25 37 -21 45 25 -37 22 -1 0zm168 -2l0 0c0,0 -1,0 -1,0l-43 -25 36 -21 46 25 -37 21 -1 0zm151 -8l0 0c0,0 -1,0 -1,0l-44 -25 37 -22 45 26 -36 21 -1 0zm145 -5l0 0c-1,0 -1,0 -1,0l-44 -25 37 -21 45 25 -37 21 0 0zm160 -13l0 0c0,0 -1,0 -1,-1l-44 -25 37 -21 45 25 -36 22 -1 0zm-563 -7l0 0c-1,0 -1,0 -1,0l-44 -26 37 -21 45 25 -37 22 0 0zm168 -1l0 0c-1,0 -1,-1 -1,-1l-44 -25 37 -21 45 25 -37 21 0 1zm552 -4l0 0c0,0 -1,0 -1,0l-43 -26 46 -26 45 25 -46 27 -1 0zm-402 -5l0 0c0,0 0,0 -1,0l-43 -25 37 -21 45 25 -37 21 -1 0zm145 -4l0 0c0,0 -1,-1 -1,-1l-44 -25 37 -21 45 25 -36 22 -1 0zm160 -14l0 0c0,0 0,0 -1,0l-43 -26 37 -21 45 25 -37 22 -1 0zm-563 -7l0 0c0,0 -1,0 -1,0l-43 -25 36 -22 46 26 -37 21 -1 0zm168 -1l0 0c-1,0 -1,0 -1,-1l-44 -25 37 -21 45 25 -36 22 -1 0zm151 -9l0 0c-1,0 -1,0 -1,0l-44 -25 37 -21 45 25 -37 21 0 0zm411 -1l0 0c0,0 -1,0 -1,0l-43 -25 46 -27 45 25 -46 27 -1 0zm-267 -3l0 0c0,0 0,0 -1,0l-43 -26 37 -21 45 25 -37 22 -1 0zm161 -14l0 0c-1,0 -1,0 -1,0l-44 -25 37 -22 45 26 -37 21 0 0zm-396 -8l0 0c0,0 -1,0 -1,0l-43 -26 37 -21 45 25 -37 22 -1 0zm151 -9l0 0c0,0 -1,0 -1,0l-43 -25 37 -21 45 25 -37 21 -1 0zm145 -4l0 0c-1,0 -1,0 -1,0l-44 -25 37 -22 45 26 -37 21 0 0zm-437 -1l0 0c-1,0 -1,0 -1,0l-44 -25 37 -22 45 26 -37 21 0 0zm713 -1l0 0c0,0 -1,0 -1,0l-43 -25 46 -27 45 25 -46 27 -1 0zm-116 -12l0 0c0,0 -1,0 -1,0l-43 -25 37 -22 45 26 -37 21 -1 0zm-395 -8l0 0c-1,0 -1,0 -1,0l-44 -25 37 -22 45 26 -37 21 0 0zm151 -8l0 0c-1,0 -1,0 -1,-1l-44 -25 37 -21 45 25 -37 22 0 0zm144 -5l0 0c0,0 -1,0 -1,0l-43 -25 37 -22 45 26 -37 21 -1 0zm-437 -1l0 0c0,0 -1,0 -1,0l-43 -25 37 -22 45 26 -37 21 -1 0zm723 -6l0 0c0,0 -1,-1 -1,-1l-43 -25 59 -34 45 25 -59 35 -1 0zm-125 -7l0 0c-1,0 -1,0 -1,0l-44 -25 116 -67 46 25 -117 67 0 0zm-396 -8l0 0c0,0 -1,0 -1,0l-43 -25 36 -22 46 26 -37 21 -1 0zm151 -8l0 0c0,0 -1,0 -1,0l-44 -26 37 -21 45 25 -36 22 -1 0zm145 -5l0 0c-1,0 -1,0 -1,0l-44 -25 37 -22 45 26 -37 21 0 0zm-437 -1l0 0c-1,0 -1,0 -1,0l-44 -25 37 -22 45 26 -37 21 0 0zm202 -21l0 0c-1,0 -1,0 -1,0l-44 -25 37 -21 45 25 -37 21 0 0zm556 -5l0 0c-1,0 -1,-1 -1,-1l-44 -25 37 -21 45 25 -37 21 0 1zm-406 -3l0 0c0,0 0,0 -1,0l-43 -25 37 -22 45 26 -37 21 -1 0zm145 -5l0 0c0,0 -1,0 -1,0l-44 -25 34 -20c3,-1 4,-3 4,-6 0,-2 -1,-5 -4,-6l-57 -33 43 -25 113 65 -87 50 -1 0zm-437 -1l0 0c-1,0 -1,0 -1,0l-44 -25 37 -21 45 25 -36 21 -1 0zm202 -21l0 0c-1,0 -1,0 -1,0l-44 -25 37 -21 45 25 -37 21 0 0zm556 -5l0 0c-1,0 -1,-1 -1,-1l-44 -25 37 -21 45 25 -37 22 0 0zm-405 -3l0 0c-1,0 -1,0 -1,0l-44 -25 37 -22 45 26 -37 21 0 0zm-266 -21l0 0c-1,0 -1,0 -1,0l-44 -25 37 -21 45 25 -37 21 0 0zm175 -6l0 0c0,0 -1,0 -1,0l-43 -25 37 -21 45 25 -37 21 -1 0zm556 -5l0 0c0,0 -1,0 -1,0l-43 -26 37 -21 45 25 -37 22 -1 0zm-128 -5l0 0c-1,0 -1,0 -1,0l-44 -25 37 -21 45 25 -37 21 0 0zm-543 -19l0 0c0,0 -1,0 -1,0l-44 -25 37 -21 45 25 -36 21 -1 0zm176 -5l0 0c-1,0 -1,-1 -1,-1l-44 -25 66 -38 45 26 -66 38 0 0zm568 -13l0 0c0,0 0,-1 -1,-1l-43 -25 97 -56 45 25 -97 57 -1 0zm-398 -7l0 0c-1,0 -1,0 -1,0l-44 -25 37 -21 45 25 -37 21 0 0zm-286 -10l0 0c0,0 0,0 -1,0l-43 -25 37 -21 45 25 -37 21 -1 0zm616 -23l0 0c0,0 -1,0 -1,0l-43 -25 37 -22 45 26 -37 21 -1 0zm-270 -2l0 0c0,0 -1,0 -1,0l-43 -25 36 -21 46 25 -37 21 -1 0zm-129 -4l0 0c0,0 0,0 -1,0l-43 -26 37 -21 45 26 -37 21 -1 0zm-156 -5l0 0c-1,0 -1,-1 -1,-1l-44 -25 37 -21 45 25 -37 22 0 0zm744 -19l0 0c0,0 -1,0 -1,0l-43 -26 37 -21 45 25 -37 22 -1 0zm-128 -5l0 0c-1,0 -1,0 -1,0l-44 -25 37 -21 45 25 -37 21 0 0zm-270 -1l0 0c-1,0 -1,-1 -1,-1l-44 -25 37 -21 45 25 -37 21 0 1zm141 -3l0 0c-1,0 -1,0 -1,0l-44 -26 37 -21 45 25 -37 22 0 0zm-270 -2l0 0c-1,0 -1,0 -1,0l-44 -25 37 -22 45 26 -37 21 0 0zm-143 -13l0 0c-1,0 -1,0 -1,0l-44 -25 37 -22 45 26 -37 21 0 0zm731 -11l0 0c-1,0 -1,0 -1,0l-112 -65 37 -21 113 65 -37 21 0 0zm-129 -5l0 0c-1,0 -1,0 -1,0l-44 -25 37 -21 45 25 -36 21 -1 0zm-129 -4l0 0c0,0 -1,0 -1,0l-43 -26 37 -21 45 26 -37 21 -1 0zm-270 -2l0 0c0,0 -1,0 -1,0l-43 -25 37 -22 45 26 -37 21 -1 0zm142 -3l0 0c-1,0 -1,0 -1,0l-44 -25 37 -21 45 25 -37 21 0 0zm-285 -10l0 0c0,0 -1,0 -1,0l-44 -25 37 -22 45 26 -36 21 -1 0zm474 -20l0 0c-1,0 -1,0 -1,0l-44 -25 37 -22 45 26 -37 21 0 0zm-129 -5l0 0c0,0 -1,0 -1,0l-44 -25 37 -21 45 25 -36 21 -1 0zm-129 -4l0 0c0,0 0,0 -1,0l-43 -25 37 -22 45 26 -37 21 -1 0zm-156 -6l0 0c0,0 0,0 -1,0l-43 -25 37 -21 45 25 -37 21 -1 0zm474 -20l0 0c0,0 -1,0 -1,0l-112 -65 37 -21 114 65 -37 21 -1 0zm-129 -4l0 0c0,0 0,-1 0,-1l-44 -25 37 -21 45 25 -37 22 -1 0zm-128 -5l0 0c-1,0 -1,0 -1,0l-44 -25 37 -22 45 26 -37 21 0 0zm-161 -23l0 0c-1,0 -1,0 -1,0l-19 -11 37 -21 20 11 -36 21 -1 0zm221 -12l0 0c0,0 -1,0 -1,0l-43 -25 37 -22 45 26 -37 21 -1 0zm-161 -23l0 0c0,0 0,0 -1,0l-19 -11 37 -21 21 11 -37 21 -1 0zm222 -12l0 0c-1,0 -1,0 -1,0l-44 -25 37 -21 45 25 -37 21 0 0zm-161 -23l0 0c-1,0 -1,0 -1,0l-19 -11 37 -21 20 11 -37 21 0 0zm60 -35l0 0c0,0 -1,0 -1,0l-19 -11 37 -21 20 11 -36 21 -1 0z"/>
     </g>
    </g>
    <polygon class="fil25" points="1778,5854 1321,5591 3602,4274 4059,4537 "/>
    <g>
     <g>
      <path class="fil34" d="M3155 5473l325 -188c34,-19 51,-45 51,-70 0,-25 0,-45 0,-45l-392 -222c-18,-11 -32,-36 -32,-57l0 -401 -569 329 0 401c0,21 14,46 32,56l342 197c67,39 176,39 243,0z"/>
     </g>
     <path class="fil2" d="M2674 5291l0 45 -104 -60c-18,-10 -32,-35 -32,-56l0 -401 108 -63c2,28 5,56 7,84l-76 44 0 313c0,21 14,46 32,57l65 37z"/>
     <path class="fil1" d="M2577 5198c0,20 14,45 32,56l302 174c68,39 177,39 244,0l326 -188c67,-39 67,-102 0,-141l-303 -174c-18,-10 -32,-36 -32,-56l0 -314 -569 329 0 314z"/>
     <path class="fil31" d="M3244 4963l0 0 -66 -38c-18,-10 -32,-36 -32,-56l0 -314 -569 329 0 314c0,20 14,45 32,56l65 37 570 -328z"/>
     <path class="fil31" d="M3531 5170c0,0 0,19 0,45 0,25 -17,51 -51,70l-325 188c-32,19 -74,28 -116,29l0 -45c42,-1 84,-10 116,-29l325 -188c34,-19 51,-45 51,-70z"/>
    </g>
    <path class="fil3" d="M1664 5631c21,12 56,11 78,-2 280,-161 1920,-1108 2200,-1270 22,-13 41,-44 41,-70l0 -1926c0,-26 -17,-56 -38,-68 -21,-13 -57,-12 -79,1l-2200 1270c-22,13 -40,45 -40,70l-1 1926c0,26 18,57 39,69z"/>
    <path class="fil14" d="M1742 5629l2200 -1270c22,-13 41,-44 41,-70l0 -1926c0,-26 -19,-36 -41,-23l-2200 1270c-22,13 -40,44 -40,70l0 1926c0,26 18,36 40,23z"/>
    <path class="fil6" d="M1742 5629l2200 -1270c22,-13 41,-44 41,-70l0 -1926c0,-26 -19,-36 -41,-23l-2200 1270c-22,13 -40,44 -40,70l0 1926c0,26 18,36 40,23z"/>
    <path class="fil2" d="M1736 5632c-22,10 -53,10 -73,-1 -20,-12 -38,-43 -38,-69l0 -217 76 44 0 217c0,23 15,34 35,26z"/>
    <path class="fil32" d="M1702 5389l0 217c0,26 18,36 40,23l2200 -1270c22,-13 41,-44 41,-70l0 -217 -2281 1317z"/>
    <path class="fil14" d="M1778 5229l0 -1524c0,-15 10,-34 24,-42l2080 -1201c14,-7 24,-1 24,14l1 1524c0,16 -11,35 -25,43l-2080 1201c-14,7 -24,1 -24,-15z"/>
    <path class="fil35" d="M1778 5229l0 -1524c0,-15 10,-34 24,-42l2080 -1201c14,-7 24,-1 24,14l1 1524c0,16 -11,35 -25,43l-2080 1201c-14,7 -24,1 -24,-15z"/>
    <path class="fil3" d="M1901 3693l1852 -1070c13,-7 24,-1 24,14l0 1349c0,16 -11,34 -24,42l-1852 1070c-14,7 -25,1 -25,-15l0 -1348c0,-16 11,-34 25,-42z"/>
    <path class="fil6" d="M3777 2637c0,-15 -11,-21 -24,-14l-1852 1070c-14,8 -25,26 -25,42l0 104 1901 -1098 0 -104z"/>
    <path class="fil3" d="M2842 4819c-21,12 -38,41 -38,65 0,25 17,35 38,22 21,-12 38,-41 38,-65 0,-25 -17,-35 -38,-22z"/>
    <path class="fil7" d="M1713 3640c-7,13 -11,27 -12,40l0 1709 -76 -44 0 -1709c0,-13 5,-27 12,-40l76 44z"/>
    <path class="fil8" d="M2179 3823l0 1114 1310 -757 0 -1114c0,-17 -12,-24 -27,-15l-1257 725c-14,9 -26,30 -26,47z"/>
    <g>
     <path class="fil36" d="M2392 3851c0,2 0,5 0,9 0,4 0,8 0,12 0,4 0,8 0,12 0,4 0,7 0,9 0,4 1,7 2,10 0,3 2,6 3,8 2,1 4,2 7,2 2,1 5,0 9,-3 3,-2 7,-4 9,-7 2,-3 4,-5 6,-8 1,-3 2,-6 3,-9 1,-2 2,-5 2,-7 1,-3 1,-5 2,-7 1,-1 2,-3 4,-4l21 -12c1,-1 2,-1 3,0 0,1 1,2 1,3 0,9 -2,18 -4,27 -3,9 -7,18 -11,26 -5,8 -10,15 -16,22 -6,7 -13,13 -20,17 -8,4 -15,6 -21,6 -6,0 -12,-2 -16,-5 -4,-4 -8,-9 -10,-16 -2,-7 -4,-15 -4,-24 0,-7 0,-14 0,-22 0,-8 0,-16 0,-23 0,-9 2,-19 4,-28 2,-10 6,-19 10,-28 4,-9 10,-17 16,-24 6,-7 13,-13 21,-17 7,-4 14,-7 20,-7 6,0 11,1 16,4 4,3 8,7 11,13 2,6 4,14 4,22 0,2 -1,3 -1,5 -1,1 -2,2 -3,3l-21 12c-2,1 -3,1 -4,1 -1,-1 -1,-3 -2,-5 0,-2 -1,-4 -2,-5 -1,-2 -2,-4 -3,-5 -2,-1 -4,-1 -6,-1 -2,0 -6,1 -9,3 -4,2 -7,5 -9,8 -3,3 -5,6 -7,10 -1,3 -3,7 -3,11 -1,4 -2,8 -2,12z"/>
     <path class="fil36" d="M2485 3796c0,-9 2,-19 4,-29 2,-9 6,-18 10,-27 4,-9 9,-16 16,-24 6,-7 13,-13 21,-17 8,-5 15,-7 21,-7 6,0 11,2 16,5 4,4 7,9 10,16 2,7 3,15 4,24 0,7 0,15 0,23 0,8 0,15 0,22 -1,10 -2,19 -4,29 -3,10 -6,19 -10,27 -5,9 -10,17 -16,24 -6,7 -13,13 -21,18 -8,4 -15,7 -21,7 -7,0 -12,-2 -16,-6 -4,-4 -8,-9 -10,-16 -2,-7 -4,-15 -4,-24 0,-7 0,-14 0,-22 0,-8 0,-15 0,-23zm72 2l0 0c0,-3 0,-6 0,-10 0,-4 0,-7 0,-11 0,-4 0,-8 0,-11 0,-4 0,-7 0,-10 -1,-4 -1,-8 -2,-10 -1,-3 -2,-6 -4,-7 -2,-2 -4,-3 -6,-3 -3,0 -6,1 -9,3 -4,2 -6,4 -9,7 -2,3 -5,6 -6,10 -2,4 -3,7 -4,11 -1,5 -2,9 -2,13 0,3 0,6 0,10 0,4 0,7 0,11 0,4 0,8 0,11 0,4 0,7 0,10 1,8 2,14 6,18 3,3 8,3 15,-1 7,-3 12,-9 15,-17 3,-7 5,-15 6,-24z"/>
     <path class="fil36" d="M2688 3789c-2,1 -3,1 -4,0 -1,0 -2,-1 -2,-2l-38 -64 0 85c0,2 0,3 -1,5 -1,2 -2,3 -3,4l-22 12c-1,1 -2,1 -3,0 -1,-1 -1,-2 -1,-4l0 -162c0,-2 0,-4 1,-6 1,-1 2,-3 3,-3l17 -10c2,-1 4,-1 5,-1 1,1 2,2 2,3l37 64 0 -85c0,-2 1,-4 2,-5 1,-2 2,-4 3,-4l21 -13c1,0 2,0 3,1 1,0 2,2 2,4l0 162c0,2 -1,4 -2,5 -1,2 -2,4 -3,4l-17 10z"/>
     <path class="fil36" d="M2825 3535c1,-1 2,-1 3,0 1,1 1,2 1,4l0 26c0,2 0,4 -1,6 -1,2 -2,3 -3,4l-29 16 0 129c0,2 -1,4 -2,6 0,2 -1,3 -3,4l-21 12c-1,1 -2,1 -3,0 -1,-1 -1,-3 -1,-4l0 -129 -29 16c-1,1 -2,1 -3,0 -1,-1 -2,-2 -2,-4l0 -27c0,-1 1,-3 2,-5 1,-2 2,-3 3,-4l88 -50z"/>
     <path class="fil36" d="M2900 3491c8,-4 14,-7 20,-8 5,-1 10,0 14,2 4,3 7,7 9,13 2,6 3,14 3,24 0,12 -1,24 -5,34 -3,10 -8,19 -14,27l20 48c1,1 1,2 1,3 0,1 -1,3 -1,4 -1,2 -2,3 -3,3l-22 13c-2,1 -4,2 -5,1 -1,-1 -1,-2 -2,-4l-18 -43 -15 9 0 53c0,2 0,4 -1,6 -1,2 -2,3 -3,4l-22 12c-1,1 -2,1 -3,0 -1,-1 -1,-2 -1,-4l0 -162c0,-2 0,-4 1,-6 1,-2 2,-3 3,-4l44 -25zm-18 87l0 0 18 -11c5,-3 9,-6 12,-11 3,-4 4,-10 4,-17 0,-7 -1,-11 -4,-12 -3,-1 -7,0 -12,3l-18 10 0 38z"/>
     <path class="fil36" d="M3033 3414c2,-1 4,-1 5,0 1,1 2,3 2,4l36 138c0,1 1,3 1,3 0,2 -1,3 -2,5 0,1 -1,2 -2,3l-21 12c-2,1 -3,1 -4,0 -1,0 -2,-1 -2,-3l-5 -18 -43 25 -5 24c0,1 0,3 -1,5 -1,2 -3,3 -5,5l-20 11c-1,1 -2,1 -3,0 -1,0 -1,-2 -1,-3 0,-1 0,-2 1,-4l35 -179c1,-2 1,-4 3,-7 1,-2 2,-4 4,-6l27 -15zm-27 125l0 0 27 -15 -13 -53 -14 68z"/>
     <path class="fil36" d="M3121 3430c0,2 0,5 0,9 0,4 0,8 0,12 0,4 0,8 0,12 0,4 0,7 0,9 1,4 1,7 2,10 1,4 2,6 3,8 2,1 4,2 7,2 2,1 5,0 9,-3 4,-2 7,-4 9,-7 2,-3 4,-5 6,-8 1,-3 3,-6 3,-9 1,-2 2,-5 2,-7 1,-3 1,-5 2,-7 1,-1 2,-3 4,-4l21 -12c1,-1 2,0 3,0 0,1 1,2 1,3 0,9 -2,18 -4,27 -3,9 -6,18 -11,26 -5,8 -10,15 -16,22 -6,7 -13,13 -20,17 -8,4 -15,6 -21,6 -6,0 -11,-2 -16,-5 -4,-4 -7,-9 -10,-16 -2,-7 -4,-15 -4,-24 0,-7 0,-14 0,-22 0,-8 0,-16 0,-23 0,-9 2,-19 4,-28 3,-10 6,-19 10,-28 4,-9 10,-16 16,-24 6,-7 13,-13 21,-17 7,-4 14,-7 20,-7 6,0 11,1 16,4 5,3 8,7 11,13 2,6 4,14 4,22 0,2 -1,3 -1,5 -1,1 -2,2 -3,3l-21 12c-2,1 -3,1 -4,1 -1,-1 -1,-3 -2,-5 0,-2 -1,-4 -2,-5 0,-2 -2,-4 -3,-5 -2,-1 -4,-1 -6,-1 -2,0 -5,1 -9,3 -4,2 -7,5 -9,8 -3,3 -5,6 -7,10 -1,3 -2,7 -3,11 -1,4 -1,8 -2,12z"/>
     <path class="fil36" d="M3302 3259c1,-1 2,-1 3,0 1,1 1,2 1,4l0 27c0,2 0,4 -1,5 -1,2 -2,4 -3,4l-29 17 0 129c0,2 0,3 -1,5 -1,2 -2,3 -3,4l-22 12c-1,1 -2,1 -3,0 -1,-1 -1,-2 -1,-4l0 -129 -29 17c-1,1 -2,0 -3,0 -1,-1 -1,-3 -1,-4l0 -27c0,-2 0,-4 1,-6 1,-1 2,-3 3,-3l88 -51z"/>
    </g>
    <path class="fil36" d="M2304 4094l1062 -614c11,-6 19,-1 19,12l0 0c0,12 -8,27 -19,33l-1062 610c-10,7 -19,2 -19,-9 0,-12 9,-26 19,-32z"/>
    <path class="fil36" d="M2304 4211l1062 -613c11,-6 19,-1 19,11l0 0c0,13 -8,28 -19,34l-1062 610c-10,6 -19,1 -19,-10 0,-12 9,-26 19,-32z"/>
    <path class="fil36" d="M2304 4328l1062 -613c11,-6 19,-1 19,11l0 1c0,12 -8,27 -19,33l-1062 610c-10,6 -19,2 -19,-10 0,-11 9,-26 19,-32z"/>
    <path class="fil36" d="M2304 4502l1062 -613c11,-6 19,-1 19,11l0 1c0,12 -8,27 -19,33l-1062 610c-10,6 -19,2 -19,-10 0,-11 9,-25 19,-32z"/>
    <path class="fil36" d="M2304 4620l1062 -613c11,-7 19,-2 19,11l0 0c0,13 -8,28 -19,34l-1062 610c-10,6 -19,1 -19,-10 0,-12 9,-26 19,-32z"/>
    <path class="fil36" d="M2304 4737l1062 -613c11,-6 19,-1 19,11l0 1c0,12 -8,27 -19,33l-1062 610c-10,6 -19,2 -19,-10 0,-11 9,-26 19,-32z"/>
    <g>
     <g>
      <path class="fil3" d="M10434 9104c20,0 37,-16 37,-36l0 -2371c0,-21 -17,-37 -37,-37 -20,0 -37,16 -37,37l0 2371c0,20 17,36 37,36z"/>
     </g>
     <g>
      <path class="fil3" d="M8967 8242c15,0 29,-9 35,-24l727 -1840c7,-19 -2,-40 -21,-48 -19,-7 -41,2 -48,21l-727 1840c-7,19 2,41 21,48 4,2 9,3 13,3z"/>
     </g>
     <g>
      <path class="fil3" d="M9055 8021c9,0 19,-4 26,-12l1353 -1431 1350 1425c14,15 38,15 53,1 14,-14 15,-37 1,-52l-1377 -1453c-7,-8 -17,-12 -27,-12l0 0c-10,0 -20,4 -27,12l-1379 1459c-14,15 -13,39 1,52 7,7 17,11 26,11z"/>
     </g>
     <g>
      <path class="fil3" d="M11901 8242c4,0 9,-1 13,-3 19,-7 29,-29 21,-48l-727 -1840c-7,-19 -29,-28 -48,-21 -19,8 -28,29 -20,48l727 1840c5,15 19,24 34,24z"/>
     </g>
     <g>
      <path class="fil14" d="M9017 7964l-96 253c0,3 -1,5 -1,7 0,1 0,3 0,4 1,6 8,12 15,16 16,10 42,10 58,0 6,-3 10,-7 12,-12 0,0 0,0 0,0l1 -3 89 -238 -78 -27z"/>
     </g>
     <g>
      <path class="fil14" d="M11851 7964l96 253c0,3 1,5 1,7 0,1 0,3 0,4 -1,6 -8,12 -15,16 -16,10 -42,10 -58,0 -6,-3 -10,-7 -12,-12 0,0 0,0 0,0l-1 -3 -89 -238 78 -27z"/>
     </g>
     <g>
      <path class="fil14" d="M10392 8884l0 210c0,6 4,12 12,17 17,10 44,10 60,0 8,-5 13,-11 13,-17l0 -210c-29,-14 -57,-14 -85,0z"/>
     </g>
    </g>
    <path class="fil16" d="M8785 6353c1,-66 58,-136 181,-215 226,-147 884,-514 1200,-690 0,-2 2,-2 2,-2 244,-148 318,-778 486,-1313 58,-182 128,-285 211,-333 20,-12 93,-52 109,-62 166,-99 382,20 653,168 249,136 443,311 482,773 24,282 1,820 -56,1228 0,0 0,0 0,0 -83,682 -184,683 -332,797 -254,196 -826,472 -1067,567 -438,172 -795,-93 -1062,-225 -266,-131 -594,-337 -706,-418 -67,-48 -101,-97 -100,-149 0,-20 -1,-104 -1,-126z"/>
    <path class="fil37" d="M8785 6353c1,-66 58,-136 181,-215 226,-147 884,-514 1200,-690 0,-2 2,-2 2,-2 244,-148 318,-778 486,-1313 58,-182 128,-285 211,-333 20,-12 93,-52 109,-62 166,-99 382,20 653,168 249,136 443,311 482,773 24,282 1,820 -56,1228 0,0 0,0 0,0 -83,682 -184,683 -332,797 -254,196 -826,472 -1067,567 -438,172 -795,-93 -1062,-225 -266,-131 -594,-337 -706,-418 -67,-48 -101,-97 -100,-149 0,-20 -1,-104 -1,-126z"/>
    <path class="fil16" d="M9592 6919c-266,-131 -594,-336 -706,-418 -152,-110 -138,-223 80,-363 301,-196 1374,-786 1374,-786 0,0 1555,918 1488,1088 -67,169 -871,585 -1174,704 -438,172 -795,-93 -1062,-225z"/>
    <path class="fil38" d="M9592 6919c-266,-131 -594,-336 -706,-418 -152,-110 -138,-223 80,-363 301,-196 1374,-786 1374,-786 0,0 1555,918 1488,1088 -67,169 -871,585 -1174,704 -438,172 -795,-93 -1062,-225z"/>
    <path class="fil4" d="M10875 3794c164,-86 377,31 640,175 168,93 312,202 399,407l111 -64c-87,-204 -230,-314 -398,-406 -271,-148 -487,-267 -653,-168 -14,9 -72,41 -99,56z"/>
    <path class="fil39" d="M10875 3794c164,-86 377,31 640,175 168,93 312,202 399,407l111 -64c-87,-204 -230,-314 -398,-406 -271,-148 -487,-267 -653,-168 -14,9 -72,41 -99,56z"/>
    <path class="fil8" d="M11515 3969c-405,-221 -690,-378 -861,164 -168,535 -242,1165 -486,1313 0,0 159,52 725,330 232,114 385,229 603,366 320,201 295,351 295,351 159,-132 245,-1288 206,-1750 -39,-463 -233,-637 -482,-774z"/>
    <path class="fil16" d="M6120 967c-4,-3 -8,-4 -13,-4l-249 0 -102 59 0 356 102 -59 89 -103 0 251 103 -59 269 -290c11,-13 6,-33 -7,-41 -4,-2 -178,-102 -192,-110z"/>
    <path class="fil40" d="M6120 967c-4,-3 -8,-4 -13,-4l-249 0 -102 59 0 356 102 -59 89 -103 0 251 103 -59 269 -290c11,-13 6,-33 -7,-41 -4,-2 -178,-102 -192,-110z"/>
    <path class="fil19" d="M5947 1467l103 -59 269 -290c15,-17 2,-44 -21,-44l-248 0 -103 59 0 334z"/>
    <path class="fil16" d="M6050 780c0,-63 -44,-139 -98,-171l0 0c-55,-31 -143,-31 -197,0l-750 429c-54,32 -98,108 -98,171l0 809c0,63 44,139 98,171l0 0c55,31 143,31 198,0l758 -436c89,-51 89,-101 89,-164l0 -809z"/>
    <path class="fil25" d="M4907 2018c0,63 44,139 98,171l0 0c50,28 126,31 181,8 -47,17 -82,-9 -82,-65l0 -809c0,-32 11,-66 29,-97l-197 -114c-18,31 -29,66 -29,97l0 809z"/>
    <path class="fil41" d="M6047 752c-11,-42 -50,-55 -95,-29l-749 429c-28,16 -52,42 -70,74l-197 -114c18,-31 42,-58 69,-73l749 -429c55,-32 143,-32 198,0l0 -1c46,27 85,87 95,143z"/>
    <g>
     <path class="fil26" d="M5603 1120c17,-4 33,-3 47,1 14,4 26,10 36,19 10,10 17,21 23,34 6,13 9,28 9,43 0,5 -1,10 -3,16 -3,5 -6,8 -9,10l-75 44c-5,3 -10,4 -13,4 -3,-1 -7,-2 -10,-5 -1,-1 -3,-3 -5,-6 -3,-3 -7,-5 -11,-7 -5,-1 -10,-2 -17,-1 -7,1 -16,4 -26,10 -7,4 -14,9 -21,14 -6,5 -12,11 -18,17 -5,7 -9,14 -12,21 -3,8 -5,17 -5,25 0,9 2,16 5,19 4,4 10,6 19,6 8,0 20,-2 34,-5 14,-4 32,-8 53,-14 21,-5 39,-8 55,-7 16,1 29,6 40,15 10,9 18,22 23,40 5,17 8,40 8,67 0,25 -3,50 -9,74 -6,24 -15,47 -26,70 -11,22 -25,43 -40,63 -16,19 -33,37 -52,53l0 63c0,6 -2,13 -5,19 -3,7 -7,11 -11,13l-75 44c-4,2 -8,2 -11,-1 -3,-3 -5,-7 -5,-14l0 -65c-18,4 -35,4 -49,0 -15,-3 -28,-10 -38,-19 -11,-9 -19,-21 -25,-36 -6,-15 -9,-31 -9,-49 0,-5 1,-11 4,-16 2,-5 5,-9 8,-10l75 -44c6,-3 10,-5 13,-4 3,0 6,1 9,4 2,1 4,4 7,7 3,4 7,7 13,10 5,2 11,3 19,3 8,-1 18,-4 29,-11 20,-11 37,-25 51,-39 14,-15 20,-31 20,-49 0,-9 -2,-15 -7,-18 -5,-3 -12,-4 -22,-3 -10,1 -23,3 -39,7 -15,5 -34,9 -55,14 -39,10 -68,5 -86,-15 -18,-20 -28,-55 -28,-106 0,-20 3,-42 8,-64 5,-22 12,-44 22,-65 9,-21 20,-42 34,-62 14,-19 29,-37 46,-54l0 -65c0,-7 2,-13 5,-20 3,-6 7,-11 11,-13l75 -44c4,-2 8,-2 11,1 3,3 5,8 5,14l0 67z"/>
    </g>
    <path class="fil16" d="M3546 8209l0 1359c0,66 46,104 103,138l143 83c40,22 62,30 112,21 22,-3 59,-21 76,-31 1,0 2,-1 3,-1l8 -5 1461 -844c107,-61 173,-175 173,-298l0 -1239c0,-28 -20,-62 -45,-76l-244 -141c-24,-14 -64,-14 -88,0l-1658 957c-12,7 -23,19 -31,33 -8,14 -13,30 -13,44z"/>
    <path class="fil10" d="M3546 8209l0 1359c0,66 46,104 103,138l143 83c40,22 62,30 112,21 22,-3 59,-21 76,-31l0 0c-57,26 -102,-3 -102,-71l0 -1281c0,-21 8,-45 20,-66l-339 -196c-8,14 -13,30 -13,44z"/>
    <path class="fil42" d="M3878 8427c0,-42 30,-95 67,-116l1567 -905c62,-36 113,-6 113,65l0 1159c0,124 -66,238 -173,299l-1461 844c-62,36 -113,7 -113,-65l0 -1281z"/>
    <path class="fil18" d="M5416 7220l-1661 969c-48,28 -77,79 -77,134l0 1399 25 15 0 -1414c0,-46 25,-89 64,-112l1674 -976 -25 -15z"/>
    <path class="fil43" d="M3698 8246c-13,23 -20,49 -20,77l0 1399 25 15 0 -1414c0,-23 6,-45 17,-65l-22 -12z"/>
    <path class="fil13" d="M3720 8258c11,-19 28,-36 47,-47l1674 -976 -25 -15 -1661 969c-24,14 -43,33 -57,57l22 12z"/>
    <path class="fil7" d="M4801 7398l0 210 82 48 0 -280c0,-14 -10,-20 -22,-13l-60 35z"/>
    <path class="fil3" d="M4222 7606l0 341 79 45 53 -31 0 -279c0,-15 10,-32 22,-39l401 -232 84 -48c12,-7 22,-1 22,13l0 280 53 -31 0 -341c0,-1 0,-3 0,-4 -2,-14 -11,-28 -22,-35l-34 -19c-12,-7 -33,-7 -45,0l-590 341c-13,7 -23,24 -23,39z"/>
    <path class="fil6" d="M4301 7651l0 341 53 -31 0 -279c0,-15 10,-32 22,-39l401 -232 84 -48c12,-7 22,-1 22,13l0 280 53 -31 0 -341c0,-1 0,-3 0,-4 -2,-11 -11,-15 -22,-9l-591 341c-12,7 -22,25 -22,39z"/>
    <path class="fil44" d="M8245 1843c27,-14 47,-194 26,-323 -21,-130 38,-158 64,-116 26,41 31,76 31,76 0,0 92,22 158,96 66,75 143,166 110,355 -7,36 -44,85 -62,138 -29,83 356,739 356,1102 0,351 -223,308 -444,193 -253,-133 -647,-553 -647,-553l-189 -684c257,19 288,59 445,256 177,223 361,461 361,461 -67,-262 -134,-630 -242,-721l33 -280z"/>
    <path class="fil19" d="M7597 2119c149,2 232,12 324,68 92,55 168,181 227,249 58,67 292,382 292,382l-72 -327 323 -89c0,0 97,217 161,374 63,158 105,326 76,494 -28,168 -117,211 -260,177 -142,-34 -300,-115 -655,-439 -356,-325 -394,-362 -394,-362l-22 -527z"/>
    <path class="fil18" d="M8329 2354l49 183c0,0 66,3 182,-28 116,-32 144,-77 144,-77l-71 -165c0,0 -141,97 -304,87z"/>
    <path class="fil18" d="M8440 2818c40,192 138,336 197,387 0,0 -226,-113 -251,-460l54 73z"/>
    <path class="fil18" d="M8647 1490l-622 -339c-14,-8 -28,-8 -39,-1 -9,5 -46,26 -56,31 -10,6 -17,17 -19,32l-41 370c-3,31 16,68 44,83l622 339c13,8 26,8 36,3 11,-5 51,-28 61,-34 9,-6 15,-16 17,-31 10,-92 30,-276 41,-369 3,-31 -16,-69 -44,-84z"/>
    <path class="fil45" d="M8589 1523l-622 -339c-15,-8 -29,-8 -40,-1 1,0 2,-1 3,-2 10,-5 47,-26 56,-31 11,-7 25,-7 39,1l622 339c9,5 16,12 22,20l-57 33c1,0 1,1 2,2 -7,-9 -15,-16 -25,-22z"/>
    <path class="fil46" d="M7914 1666l622 339c27,15 52,2 56,-29 10,-92 30,-276 41,-369 3,-31 -16,-69 -44,-84l-622 -339c-27,-15 -52,-2 -56,29l-41 370c-3,31 16,68 44,83z"/>
    <path class="fil45" d="M8578 1751c12,6 20,23 18,36 -1,14 -12,19 -23,13 -12,-7 -20,-23 -18,-37 1,-14 12,-19 23,-12z"/>
    <path class="fil16" d="M7960 1637c-12,-6 -22,-26 -21,-38l44 -369 557 306c11,6 21,25 20,38l-44 368 -556 -305z"/>
    <path class="fil47" d="M7960 1637c-12,-6 -22,-26 -21,-38l44 -369 557 306c11,6 21,25 20,38l-44 368 -556 -305z"/>
    <path class="fil16" d="M8518 1927l-2 15 -557 -305c-11,-6 -21,-26 -20,-39l44 -368 14 8 -42 353c-2,13 9,32 20,38l543 298z"/>
    <path class="fil48" d="M8691 1574c-11,92 -31,277 -41,369 -2,15 -8,25 -17,31 -10,6 -50,29 -61,34 0,1 -1,1 -2,1 12,-4 20,-16 22,-33 10,-92 30,-276 41,-369 2,-22 -7,-46 -21,-64l58 -33c14,18 23,42 21,64z"/>
    <path class="fil44" d="M8235 1843c-20,-19 -25,-76 -58,-128 -38,-60 -133,-49 -106,-1 27,48 35,91 51,211 15,120 42,131 90,198l33 -274 -10 -6z"/>
    <path class="fil2" d="M8502 1196c-13,-8 -23,-31 -22,-52l4 -82c1,-21 12,-31 25,-22 13,8 23,31 22,52l-4 82c-1,21 -12,30 -25,22z"/>
    <path class="fil2" d="M8325 1159c-8,-5 -16,-17 -19,-32l-23 -88c-6,-22 -1,-42 11,-45 11,-3 25,12 31,34l23 88c6,22 1,42 -11,45 -4,1 -8,0 -12,-2z"/>
    <path class="fil2" d="M8809 2281c-4,-2 -8,-7 -12,-12l-43 -70c-11,-18 -14,-43 -6,-56 7,-14 21,-11 32,6l43 70c11,18 14,43 7,57 -5,9 -13,10 -21,5z"/>
    <path class="fil2" d="M8876 2000l-52 -33c-13,-9 -22,-32 -22,-52 1,-21 13,-31 26,-23l52 34c13,8 22,31 21,52 -1,20 -12,30 -25,22z"/>
    <path class="fil2" d="M8790 1663c-8,-6 -16,-17 -19,-32 -6,-22 -1,-42 10,-45l47 -12c12,-4 26,12 32,34 6,21 1,42 -11,45l-47 12c-4,1 -8,0 -12,-2z"/>
    <path class="fil2" d="M8672 1381c-4,-3 -8,-7 -11,-13 -11,-17 -14,-42 -7,-56l30 -55c7,-13 21,-10 32,7 11,18 14,43 7,56l-30 55c-5,9 -13,11 -21,6z"/>
    <path class="fil16" d="M6605 9202c-10,38 -30,147 -232,147 -202,0 -318,-83 -358,-185 -39,-103 -17,-179 -13,-268 4,-90 -63,-147 -77,-195 -22,-71 37,-170 37,-170l643 671z"/>
    <path class="fil16" d="M8498 8645c7,5 12,68 -10,97 -14,20 -150,118 -317,98 -167,-21 -248,-64 -344,-120 -97,-58 -165,-66 -264,-66 -97,0 -168,-18 -176,-43 -14,-44 -15,-72 6,-72l1105 106z"/>
    <path class="fil44" d="M6030 8384c0,185 352,218 343,70l123 -430 -398 -42 -68 402z"/>
    <path class="fil18" d="M6603 9110c-13,-35 -58,-89 -76,-121 -97,-170 -146,-358 -134,-554 1,-11 2,-32 -8,-40 -10,-8 -21,0 -33,3 -1,0 -1,0 -1,0 0,0 0,0 0,1 -15,4 -36,8 -64,7 -71,-2 -146,-29 -164,-29 -14,0 -24,42 -29,87 -23,-19 -27,-51 -47,-73 -11,-11 -16,-12 -13,-28 1,-11 3,-20 5,-31 -18,-8 -42,59 -64,110 -26,59 -57,125 -41,190 9,36 27,70 43,103 27,58 50,121 47,185 -1,29 -7,57 -7,85 1,98 57,183 146,225 115,54 298,73 416,3 41,-24 37,-88 24,-123z"/>
    <path class="fil44" d="M7463 8235c100,71 192,80 309,21l59 -627 -431 0 63 606z"/>
    <path class="fil18" d="M6519 4211c-79,731 -185,2181 -185,2181 0,0 -120,220 -166,572 -58,435 -126,1263 -126,1263 0,0 204,132 402,68 0,0 453,-1307 543,-1735 79,-374 218,-1141 218,-1141l175 1044c0,0 -69,217 -57,510 9,201 88,970 88,970 66,62 317,70 401,17 0,0 121,-1281 139,-1492 23,-278 66,-2273 66,-2273l-1498 16z"/>
    <path class="fil19" d="M7205 5419l98 -449c0,0 217,-50 373,-175 0,0 -57,143 -296,253l-99 421 86 923 -162 -973z"/>
    <path class="fil18" d="M8412 8519c-165,-61 -325,-133 -427,-205 -28,-20 -50,-37 -68,-53 -42,-42 -68,-134 -86,-144 -6,-3 -15,1 -27,8 -6,-7 -13,-11 -19,-11l-2 25c-26,16 -62,35 -113,41 -101,13 -105,-7 -108,26 -1,8 -1,21 0,36 -54,-6 -97,-22 -100,-42l-9 -65c-53,-3 -53,93 -67,201 -11,87 -29,151 -3,214 83,67 225,45 307,55 115,15 172,98 334,147 260,79 419,-29 466,-76 29,-58 12,-123 -78,-157z"/>
    <g>
     <path class="fil16" d="M7140 2145c-204,31 -438,47 -581,67 -156,21 -212,149 -212,416 0,394 201,1050 201,1050l-54 671c183,195 1059,281 1527,-6 0,0 13,-1334 0,-1559 -22,-396 -251,-649 -397,-660 0,0 -134,-32 -484,21z"/>
    </g>
    <path class="fil18" d="M7412 2594c-3,92 -43,751 -58,856 -15,106 147,329 184,326 37,-2 110,-185 126,-302 -9,-144 -94,-736 -161,-891l-91 11z"/>
    <path class="fil25" d="M7508 2595c-1,-4 -3,-8 -5,-12l-91 11c0,7 0,19 -1,34 0,0 0,0 0,0 37,0 85,-19 97,-33z"/>
    <path class="fil18" d="M7366 2395c74,9 137,-12 137,-12 0,0 25,51 35,100 0,0 -5,49 -35,100 0,0 -34,26 -91,11 0,0 -59,-42 -79,-75 8,-35 23,-110 33,-124z"/>
    <g>
     <g>
      <path class="fil7" d="M6942 922c0,0 -112,16 -153,100 -35,73 -22,250 25,443 48,193 92,310 120,363 28,53 86,68 86,68l-6 -229 -8 -159c0,0 102,-140 114,-255 14,-147 -17,-207 -17,-207l-161 -124z"/>
      <path class="fil7" d="M6916 950l-158 -72c23,-47 76,-69 120,-49 43,20 60,74 38,121z"/>
      <path class="fil7" d="M7123 1144c1,236 193,427 429,426 236,-1 426,-193 426,-429 -1,-236 -193,-427 -429,-426 -236,1 -427,193 -426,429z"/>
      <path class="fil44" d="M7012 1482c-39,34 -70,-53 -102,-86 -33,-34 -138,-80 -190,31 -53,113 48,267 127,303 115,54 167,-63 167,-63l12 482c122,219 371,146 410,246 22,-88 139,-131 56,-227l-1 -157c0,0 129,19 192,9 105,-17 160,-96 192,-210 50,-182 71,-490 1,-845 -118,-91 -526,-76 -773,81 18,315 -53,403 -91,436z"/>
      <path class="fil7" d="M8001 1250c-8,0 -15,-1 -23,-2 -75,-5 -173,-4 -232,17 -74,26 -100,52 -141,54 -44,2 -72,-23 -151,-43 -63,-16 -168,-9 -248,2 -8,1 -17,2 -25,4 -13,2 -28,21 -27,43 1,21 17,38 24,48 3,4 6,10 8,19 8,33 14,98 30,133 7,15 17,32 32,48 5,5 11,9 16,13 3,2 7,4 10,6 8,5 17,9 28,13 1,0 3,1 4,1 3,1 5,1 8,2 2,1 5,1 7,2 8,1 16,2 25,3 3,0 7,0 11,0 4,0 8,0 13,0 101,-3 144,-54 169,-106 25,-52 19,-124 66,-126 1,0 3,0 4,0 2,0 3,0 4,1 35,7 31,73 53,120 8,18 19,35 33,50 3,3 5,6 8,8 1,2 3,3 4,4 2,1 3,2 5,3 1,1 2,2 4,3 2,2 3,3 4,3 1,1 2,2 4,2 0,1 1,1 2,2 12,6 25,11 41,15 1,0 2,0 3,0 15,3 31,5 50,4 95,-4 128,-63 144,-99 15,-37 21,-102 28,-136 2,-8 5,-14 9,-18 7,-9 20,-29 22,-51 1,-21 -13,-40 -26,-42zm-488 209l0 0c-5,20 -14,49 -35,73l-1 0c-21,24 -56,44 -110,45 -56,1 -88,-21 -107,-48 -1,-2 -3,-3 -4,-5 -1,-2 -2,-3 -3,-5 -1,-1 -2,-3 -2,-5 -1,-1 -2,-2 -3,-4 0,-1 -1,-2 -1,-3 -1,-1 -1,-2 -2,-3 0,-2 -1,-4 -2,-5l0 0c-2,-5 -4,-10 -5,-15 0,0 0,0 0,0 -1,-3 -2,-6 -3,-9 -1,-5 -2,-10 -3,-14 -1,-1 -1,-2 -1,-3 0,-1 0,-2 -1,-3 -7,-35 -17,-105 1,-121 16,-16 63,-35 139,-30 3,0 5,0 8,0 12,1 23,3 35,5 4,1 9,2 13,3 12,3 24,6 34,10 4,1 7,2 10,4 4,1 8,3 11,5 1,0 2,0 3,1 1,0 3,1 4,2 10,6 18,12 23,18 15,21 10,67 2,107zm442 -31l0 0c-6,28 -19,88 -72,116 -15,9 -33,14 -56,15 -60,4 -94,-21 -113,-49 -1,0 -1,0 -1,0 0,-2 -1,-3 -2,-4 -1,-1 -1,-2 -2,-3 0,-1 -1,-2 -1,-2 -1,-2 -2,-4 -3,-6 -1,-2 -2,-4 -3,-6 -1,-1 -1,-2 -2,-3 0,-1 0,-2 0,-2 -1,-1 -1,-2 -1,-3 -1,-1 -1,-1 -1,-2 -4,-9 -6,-19 -7,-26 -8,-40 -12,-86 2,-108 14,-23 70,-49 124,-58 12,-2 24,-3 35,-4 1,0 2,0 4,0 1,0 3,0 4,0 4,0 8,0 12,0 2,0 3,0 5,0 2,0 3,0 5,0 4,0 7,1 10,1 6,1 12,2 17,3 2,0 3,0 4,0 1,1 1,1 1,1 1,0 2,0 3,0 2,1 3,1 4,2 2,0 4,1 5,1 3,1 6,2 9,3 0,0 1,0 1,1 8,3 15,7 19,11 16,15 7,86 0,122z"/>
      <path class="fil7" d="M7934 714c-3,-6 -8,-12 -15,-12 -5,0 -10,3 -14,6 -16,11 -50,40 -94,63 9,-42 9,-85 2,-128 -5,-25 -12,-85 -44,-92 -20,-4 -36,12 -50,26 -129,120 -297,64 -451,69 -130,4 -286,57 -344,183 -27,57 -32,118 21,158 45,34 103,49 158,59 258,45 627,151 818,-90 28,-35 40,-75 40,-126 0,-47 -10,-81 -26,-115 0,0 -1,-1 -1,-1z"/>
      <path class="fil49" d="M7491 2011c0,0 -235,-47 -317,-90 -55,-29 -101,-79 -114,-112 0,0 16,70 65,132 60,77 366,132 366,132l0 -62z"/>
     </g>
     <g>
      <path class="fil7" d="M7436 1411c0,27 -21,49 -47,49 -26,0 -47,-22 -47,-49 0,-27 20,-49 46,-49 26,0 48,22 48,49z"/>
      <path class="fil7" d="M7418 1236l-105 47c-13,-30 1,-65 30,-78 29,-13 62,1 75,31z"/>
      <path class="fil50" d="M7453 1725l150 56c-15,43 -60,65 -102,50 -41,-16 -63,-63 -48,-106z"/>
      <path class="fil49" d="M7501 1831c14,5 28,5 42,3 -2,-39 -34,-70 -73,-70 -7,0 -14,1 -20,3 5,28 24,53 51,64z"/>
      <path class="fil7" d="M7864 1266l-108 -40c10,-31 42,-47 72,-36 30,12 46,45 36,76z"/>
      <path class="fil7" d="M7824 1396c0,27 -21,48 -47,48 -26,0 -47,-21 -47,-48 0,-27 21,-49 47,-49 25,0 47,22 47,49z"/>
      <path class="fil49" d="M7591 1384l16 268 147 -51 -147 -220c-5,0 -10,1 -16,3z"/>
     </g>
     <path class="fil7" d="M7187 1283l-344 77c0,0 42,7 79,51l265 -50 0 -78z"/>
    </g>
    <g>
     <path class="fil18" d="M7023 2014c-30,2 -43,7 -67,55 -28,55 -52,106 -52,106 0,0 0,112 101,214 100,101 321,170 321,170 0,0 18,-103 32,-145 31,-92 78,-19 78,-19 0,0 -6,-36 -26,-54 -19,-18 -146,-28 -247,-92 -101,-63 -138,-176 -138,-176l-2 -59z"/>
     <path class="fil18" d="M7436 2395c0,-54 15,-64 26,-81 29,-42 29,-80 29,-123 0,-42 0,-138 0,-138 34,5 59,11 81,64 21,53 60,162 43,269 -18,106 -64,141 -64,141 0,0 -26,-90 -43,-131 -16,-42 -48,-53 -72,-1z"/>
    </g>
    <g>
     <path class="fil44" d="M6580 2209c0,0 -298,0 -407,318 -59,173 -206,613 -294,886 -155,-75 -530,-257 -605,-322 -91,-77 -155,-162 -191,-205 -45,-56 -71,-103 -91,-138 -47,-85 -62,-156 -74,-189 -19,-57 -94,3 -93,106 1,76 21,123 33,165 -37,-3 -145,-14 -162,-16 -58,-4 -237,-1 -220,94 5,21 19,40 17,62 -1,10 -6,20 -9,30 -12,37 -1,80 26,108 13,13 22,25 26,44 4,17 6,37 17,52 9,12 23,19 34,29 14,13 24,31 33,48 9,17 18,35 32,49 32,33 83,24 125,24 55,-1 125,-14 185,-8 110,25 511,379 855,566 117,64 213,96 288,56l-1 0c63,-24 94,-93 134,-192 91,-230 327,-846 327,-846 90,-256 82,-597 15,-721z"/>
     <path class="fil49" d="M4798 2862c55,-1 80,28 103,101 13,43 52,117 109,134 0,0 -40,9 -69,-6 -30,-16 -37,-16 -44,1 -8,17 -26,29 -26,29 0,0 37,20 27,64 -10,45 -110,79 -206,64 0,0 147,-3 164,-56 16,-52 -72,-82 -129,-79 0,0 139,-12 144,-61 6,-48 -58,-63 -140,-57 0,0 113,-16 119,-58 7,-51 -34,-66 -52,-76z"/>
    </g>
    <path class="fil19" d="M6631 2203c-112,-2 -214,16 -304,81 -90,65 -130,103 -248,461 -118,359 -214,648 -214,648l-429 -200c-31,128 -92,242 -176,345 0,0 283,224 429,316 147,92 311,174 387,148 77,-26 105,-43 208,-304 102,-261 314,-801 314,-801 0,0 123,-379 33,-694z"/>
    <path class="fil18" d="M5553 3248l-218 -116c0,0 -61,209 -185,326l230 173c0,0 178,-150 173,-383z"/>
    <path class="fil18" d="M5865 3393c165,93 228,211 228,211 0,0 -24,-167 -204,-283l-24 72z"/>
   </g>
  </g>
 </g>
</svg>
