<?xml version="1.0" encoding="UTF-8"?>
<!DOCTYPE svg PUBLIC "-//W3C//DTD SVG 1.1//EN" "http://www.w3.org/Graphics/SVG/1.1/DTD/svg11.dtd">
<!-- Creator: CorelDRAW X7 -->
<svg xmlns="http://www.w3.org/2000/svg" xml:space="preserve" width="13.4133in" height="11.4567in" version="1.1" style="shape-rendering:geometricPrecision; text-rendering:geometricPrecision; image-rendering:optimizeQuality; fill-rule:evenodd; clip-rule:evenodd"
viewBox="0 0 13413 11457"
 xmlns:xlink="http://www.w3.org/1999/xlink">
 <defs>
  <style type="text/css">
   <![CDATA[
    .fil0 {fill:none}
    .fil10 {fill:#003333;fill-rule:nonzero}
    .fil19 {fill:#006633;fill-rule:nonzero}
    .fil12 {fill:#009933;fill-rule:nonzero}
    .fil13 {fill:#202D34;fill-rule:nonzero}
    .fil15 {fill:#339966;fill-rule:nonzero}
    .fil9 {fill:#33CC66;fill-rule:nonzero}
    .fil23 {fill:#BB201D;fill-rule:nonzero}
    .fil18 {fill:#CE5A50;fill-rule:nonzero}
    .fil7 {fill:#E0E0E0;fill-rule:nonzero}
    .fil2 {fill:#E7E7E7;fill-rule:nonzero}
    .fil1 {fill:#ECECEC;fill-rule:nonzero}
    .fil3 {fill:#F0F0F0;fill-rule:nonzero}
    .fil8 {fill:whitesmoke;fill-rule:nonzero}
    .fil4 {fill:#FAFAFA;fill-rule:nonzero}
    .fil17 {fill:#FF847F;fill-rule:nonzero}
    .fil11 {fill:#FFC5BD;fill-rule:nonzero}
    .fil20 {fill:#FFCC00;fill-rule:nonzero}
    .fil5 {fill:white;fill-rule:nonzero}
    .fil14 {fill:black;fill-rule:nonzero;fill-opacity:0.200000}
    .fil24 {fill:#009933;fill-rule:nonzero;fill-opacity:0.200000}
    .fil22 {fill:white;fill-rule:nonzero;fill-opacity:0.200000}
    .fil16 {fill:#339966;fill-rule:nonzero;fill-opacity:0.301961}
    .fil21 {fill:#FFCC00;fill-rule:nonzero;fill-opacity:0.400000}
    .fil25 {fill:#339966;fill-rule:nonzero;fill-opacity:0.501961}
    .fil6 {fill:#E7E7E7;fill-rule:nonzero;fill-opacity:0.701961}
   ]]>
  </style>
 </defs>
 <g id="Layer_x0020_1">
  <metadata id="CorelCorpID_0Corel-Layer"/>
  <g id="_770818240">
   <rect class="fil0" width="13413" height="11457"/>
   <g>
    <g>
     <polygon class="fil1" points="12549,10076 864,10076 864,10068 12549,10068 "/>
     <polygon class="fil1" points="10604,10563 11378,10563 11378,10571 10604,10571 "/>
     <polygon class="fil1" points="8271,10459 9626,10459 9626,10467 8271,10467 "/>
     <polygon class="fil1" points="9316,10277 10581,10277 10581,10285 9316,10285 "/>
     <polygon class="fil1" points="2090,10329 2439,10329 2439,10337 2090,10337 "/>
     <polygon class="fil1" points="2647,10329 4152,10329 4152,10337 2647,10337 "/>
     <polygon class="fil1" points="5118,10459 6126,10459 6126,10467 5118,10467 "/>
     <path class="fil1" d="M6403 8697l-4512 0c-74,0 -134,-79 -134,-176l0 -8346c0,-96 60,-175 134,-175l4512 0c74,0 134,79 134,175l0 8346c0,97 -60,176 -134,176zm-4512 -8689l0 0c-71,0 -128,75 -128,167l0 8346c0,93 57,168 128,168l4512 0c70,0 128,-75 128,-168l0 -8346c0,-92 -58,-167 -128,-167l-4512 0z"/>
     <path class="fil1" d="M11458 8697l-4513 0c-73,0 -133,-79 -133,-176l0 -8346c0,-96 60,-175 133,-175l4513 0c73,0 133,79 133,175l0 8346c0,97 -60,176 -133,176zm-4513 -8689l0 0c-70,0 -127,75 -127,167l0 8346c0,93 57,168 127,168l4513 0c70,0 127,-75 127,-168l0 -8346c0,-92 -57,-167 -127,-167l-4513 0z"/>
    </g>
    <g>
     <g>
      <g>
       <polygon class="fil2" points="5800,5322 1011,5322 1011,890 5800,890 "/>
       <polygon class="fil3" points="5915,5322 1065,5322 1065,890 5915,890 "/>
       <polygon class="fil4" points="1226,5141 1226,1071 5754,1071 5754,5141 "/>
       <polygon class="fil5" points="3872,5141 3073,1071 2024,1071 2824,5141 "/>
       <polygon class="fil5" points="2661,5141 1861,1071 1388,1071 2187,5141 "/>
       <polygon class="fil5" points="5183,5141 4383,1071 4210,1071 5009,5141 "/>
       <polygon class="fil2" points="5733,5141 5733,1071 5754,1071 5754,5141 "/>
      </g>
      <g>
       <path class="fil6" d="M890 883l0 2267 465 0c0,0 835,-1055 1024,-2176 20,-113 -67,-217 -183,-217l-1179 0c-70,0 -127,56 -127,126z"/>
       <path class="fil6" d="M890 7154l0 -3863 465 0c0,0 289,3197 399,3863l-864 0z"/>
       <path class="fil7" d="M1341 3291l-434 0c-25,0 -46,-20 -46,-46l0 -49c0,-26 21,-46 46,-46l434 0c26,0 47,20 47,46l0 49c0,26 -21,46 -47,46z"/>
      </g>
      <g>
       <path class="fil6" d="M6046 883l0 2267 -464 0c0,0 -835,-1055 -1025,-2176 -19,-113 68,-217 183,-217l1180 0c70,0 126,56 126,126z"/>
       <path class="fil6" d="M6046 7154l0 -3863 -464 0c0,0 -290,3197 -399,3863l863 0z"/>
       <path class="fil7" d="M5595 3291l434 0c26,0 47,-20 47,-46l0 -49c0,-26 -21,-46 -47,-46l-434 0c-25,0 -46,20 -46,46l0 49c0,26 21,46 46,46z"/>
      </g>
     </g>
     <g>
      <polygon class="fil2" points="10807,4592 8138,4592 8138,1498 10807,1498 "/>
      <polygon class="fil3" points="10993,4592 8178,4592 8178,1498 10993,1498 "/>
      <polygon class="fil5" points="8414,4357 8414,1734 10757,1734 10757,4357 "/>
      <g>
       <path class="fil3" d="M10156 3638l-608 0c-306,0 -555,-249 -555,-555l0 -608c0,-13 10,-23 23,-23l608 0c306,0 555,249 555,555l0 608c0,13 -10,23 -23,23zm-1118 -1140l0 0 0 585c0,281 229,510 510,510l585 0 0 -586c0,-281 -228,-509 -509,-509l-586 0z"/>
      </g>
     </g>
     <g>
      <g>
       <polygon class="fil3" points="7862,9940 7386,9940 7386,5761 7862,5761 "/>
       <polygon class="fil3" points="12023,9940 7452,9940 7452,10068 12023,10068 "/>
       <polygon class="fil8" points="7862,9940 12088,9940 12088,5761 7862,5761 "/>
       <path class="fil3" d="M11719 8308l-3487 0 0 -915 3487 0 0 915zm-3456 -30l0 0 3425 0 0 -855 -3425 0 0 855z"/>
       <path class="fil3" d="M11719 9447l-3487 0 0 -915 3487 0 0 915zm-3456 -31l0 0 3425 0 0 -854 -3425 0 0 854z"/>
       <path class="fil3" d="M10363 7767l-776 0c-61,0 -111,-50 -111,-111 0,-61 50,-111 111,-111l776 0c61,0 111,50 111,111 0,61 -50,111 -111,111zm-776 -191l0 0c-44,0 -80,36 -80,80 0,44 36,80 80,80l776 0c45,0 80,-36 80,-80 0,-44 -35,-80 -80,-80l-776 0z"/>
       <path class="fil3" d="M11719 7169l-3487 0 0 -915 3487 0 0 915zm-3456 -30l0 0 3425 0 0 -854 -3425 0 0 854z"/>
       <path class="fil3" d="M10363 6628l-776 0c-61,0 -111,-49 -111,-111 0,-61 50,-111 111,-111l776 0c61,0 111,50 111,111 0,62 -50,111 -111,111zm-776 -191l0 0c-44,0 -80,36 -80,80 0,45 36,81 80,81l776 0c45,0 80,-36 80,-81 0,-44 -35,-80 -80,-80l-776 0z"/>
       <path class="fil3" d="M10363 8906l-776 0c-61,0 -111,-50 -111,-111 0,-61 50,-111 111,-111l776 0c61,0 111,50 111,111 0,61 -50,111 -111,111zm-776 -191l0 0c-44,0 -80,36 -80,80 0,44 36,80 80,80l776 0c45,0 80,-36 80,-80 0,-44 -35,-80 -80,-80l-776 0z"/>
      </g>
      <polygon class="fil3" points="12175,5642 7862,5642 7862,5761 12175,5761 "/>
      <polygon class="fil2" points="7293,5642 7862,5642 7862,5761 7293,5761 "/>
     </g>
    </g>
    <g>
     <path class="fil9" d="M5787 7151c1294,-306 2698,763 4038,554 1291,-201 2352,-1231 1834,-2627 -502,-1352 -1966,-2237 -3327,-2230 -843,5 -1284,-8 -2031,-581 -577,-444 -1030,-1003 -1737,-1242 -1372,-464 -2020,366 -2108,1457 -95,1181 -1025,1811 -1240,2946 -181,959 188,2243 1451,2566 1181,302 2120,-607 3120,-843z"/>
     <path class="fil9" d="M5787 7151c1294,-306 2698,763 4038,554 1291,-201 2352,-1231 1834,-2627 -502,-1352 -1966,-2237 -3327,-2230 -843,5 -1284,-8 -2031,-581 -577,-444 -1030,-1003 -1737,-1242 -1372,-464 -2020,366 -2108,1457 -95,1181 -1025,1811 -1240,2946 -181,959 188,2243 1451,2566 1181,302 2120,-607 3120,-843z"/>
    </g>
    <path class="fil8" d="M12668 11109c0,192 -2669,348 -5961,348 -3293,0 -5962,-156 -5962,-348 0,-193 2669,-349 5962,-349 3292,0 5961,156 5961,349z"/>
    <path class="fil10" d="M4112 2711c5,-68 298,-319 604,-144 305,175 85,704 417,756 -216,214 -916,478 -1132,231 -216,-247 -243,-940 111,-843z"/>
    <path class="fil11" d="M5343 4416c8,113 20,234 36,349 16,116 37,231 69,335 3,14 8,26 12,38l12 33c4,11 6,15 10,20 7,10 48,20 96,13 98,-11 213,-55 316,-101l78 114c-26,24 -51,43 -78,62 -26,19 -53,37 -82,54 -57,34 -118,64 -190,84 -36,10 -75,17 -119,17 -43,0 -94,-8 -142,-35 -49,-25 -89,-69 -113,-113l-8 -16 -6 -12 -10 -24c-8,-15 -15,-31 -20,-47 -50,-127 -78,-253 -101,-379 -21,-126 -35,-250 -40,-380l280 -12z"/>
    <path class="fil12" d="M5192 4110c250,191 240,551 240,551l-446 106c0,0 -137,-361 -82,-494 58,-138 148,-270 288,-163z"/>
    <path class="fil11" d="M5870 5129l164 -164 88 257c0,0 -138,75 -271,4l19 -97z"/>
    <polygon class="fil11" points="6260,4940 6291,5143 6122,5222 6034,4965 "/>
    <polygon class="fil11" points="3748,10895 3998,10920 4259,10323 4009,10298 "/>
    <polygon class="fil11" points="2132,10013 2321,10190 2727,9743 2539,9566 "/>
    <path class="fil13" d="M2408 10105l-142 -255c-5,-10 -16,-14 -25,-10l-218 83c-23,9 -33,38 -21,59 51,88 80,128 143,240 38,69 112,227 165,323 52,93 150,48 137,3 -61,-199 -49,-310 -32,-398 3,-15 0,-32 -7,-45z"/>
    <path class="fil13" d="M4032 10842l-308 0c-11,0 -22,8 -25,19l-66 244c-7,25 11,48 37,48 109,1 160,1 295,1 84,0 299,0 414,0 113,0 136,-114 90,-124 -209,-47 -329,-110 -394,-171 -11,-11 -27,-17 -43,-17z"/>
    <polygon class="fil14" points="4259,10323 4125,10631 3863,10631 4008,10298 "/>
    <polygon class="fil14" points="2539,9566 2727,9743 2517,9973 2329,9796 "/>
    <path class="fil12" d="M5117 4073c0,0 113,50 -265,1546 -417,-36 -848,-73 -1051,-91 55,-426 78,-689 -50,-1584 0,0 224,-29 451,-21 177,7 323,14 477,42 203,36 438,108 438,108z"/>
    <path class="fil5" d="M4390 4454c-1,0 -2,0 -3,-1 -227,-187 -368,-475 -323,-543 1,-2 4,-3 6,-1 2,1 2,4 1,6 -41,63 100,346 317,527 55,-165 148,-231 149,-231 2,-2 4,-1 6,1 1,2 1,4 -1,6 -1,0 -94,66 -148,233 0,2 -2,3 -3,3 0,0 -1,0 -1,0z"/>
    <path class="fil5" d="M4753 4464c0,0 0,0 -1,0 -1,0 -2,-1 -3,-3 -47,-171 -142,-240 -143,-240 -2,-2 -3,-4 -1,-6 1,-2 4,-3 6,-1 1,0 95,68 144,237 114,-140 50,-406 6,-474 -2,-2 -1,-5 1,-6 2,-2 5,-1 6,1 46,71 113,349 -11,491 -1,1 -2,1 -4,1z"/>
    <path class="fil11" d="M4296 3390c16,156 22,440 -94,533 0,0 124,127 375,267 183,-126 102,-225 102,-225 -168,-56 -152,-183 -112,-299l-271 -276z"/>
    <path class="fil14" d="M4406 3503l161 163c-10,27 -18,55 -22,83 -65,-15 -158,-82 -159,-151 -1,-35 13,-80 20,-95z"/>
    <path class="fil11" d="M4158 3147c65,249 88,356 241,460 230,157 522,23 532,-241 10,-237 -98,-605 -365,-657 -263,-51 -473,188 -408,438z"/>
    <path class="fil10" d="M4229 3333c85,123 305,-610 20,-586 -286,23 -252,333 -20,586z"/>
    <path class="fil10" d="M4267 2788c165,84 647,185 580,51 -67,-134 -214,-220 -371,-222 -156,-1 -355,98 -209,171z"/>
    <path class="fil11" d="M4138 3358c24,47 68,79 110,92 64,19 97,-37 80,-98 -15,-54 -65,-129 -129,-122 -63,7 -89,74 -61,128z"/>
    <path class="fil13" d="M4852 5619c0,0 355,1572 118,2680 -159,743 -732,2242 -732,2242l-448 -11c0,0 434,-1574 523,-2193 154,-1058 -230,-2785 -230,-2785l769 67z"/>
    <path class="fil14" d="M4442 5936l-224 354c57,366 114,824 128,1265 315,-564 166,-1320 96,-1619z"/>
    <polygon class="fil12" points="4301,10565 3748,10550 3780,10380 4344,10407 "/>
    <path class="fil13" d="M4622 5602c0,0 -208,1668 -660,2578 -365,735 -1339,1782 -1339,1782l-249 -257c0,0 657,-1137 929,-1626 665,-1197 121,-2111 498,-2551l821 74z"/>
    <polygon class="fil12" points="2648,9996 2326,9683 2433,9538 2774,9878 "/>
    <g>
     <path class="fil15" d="M3791 5465l-56 90c-4,7 4,15 16,16l1102 96c9,0 18,-4 19,-10l17 -93c2,-6 -6,-12 -17,-13l-1063 -92c-8,-1 -15,2 -18,6z"/>
     <path class="fil16" d="M3791 5465l-56 90c-4,7 4,15 16,16l1102 96c9,0 18,-4 19,-10l17 -93c2,-6 -6,-12 -17,-13l-1063 -92c-8,-1 -15,2 -18,6z"/>
    </g>
    <path class="fil13" d="M3924 5596l-29 -2c-6,-1 -10,-4 -9,-7l24 -121c1,-4 6,-6 12,-6l28 3c6,0 10,3 9,7l-24 121c-1,3 -6,6 -11,5z"/>
    <path class="fil13" d="M4772 5670l-29 -3c-5,0 -9,-3 -9,-7l24 -121c1,-4 6,-6 12,-6l28 3c6,0 10,4 9,7l-23 121c-1,4 -6,6 -12,6z"/>
    <path class="fil13" d="M4348 5633l-29 -2c-5,-1 -9,-4 -9,-8l24 -121c1,-3 6,-6 12,-5l28 2c6,1 10,4 9,8l-24 121c0,3 -6,6 -11,5z"/>
    <path class="fil13" d="M4580 3138c4,21 19,35 32,32 13,-2 21,-21 17,-42 -4,-20 -18,-35 -32,-32 -13,3 -21,21 -17,42z"/>
    <path class="fil13" d="M4813 3092c4,21 18,35 31,33 14,-3 21,-22 17,-42 -4,-21 -18,-35 -31,-33 -14,3 -21,22 -17,42z"/>
    <path class="fil13" d="M4824 3053l46 -24c0,0 -17,43 -46,24z"/>
    <path class="fil17" d="M4733 3144c0,0 52,81 99,116 -22,31 -71,28 -71,28l-28 -144z"/>
    <path class="fil13" d="M4666 3386c-73,0 -115,-42 -117,-44 -2,-2 -2,-5 0,-7 2,-2 6,-2 8,0 0,0 55,55 146,37 3,0 5,2 6,5 0,2 -2,5 -4,6 -14,2 -27,3 -39,3z"/>
    <path class="fil13" d="M4441 3058c-2,0 -4,0 -5,-1 -5,-3 -7,-9 -4,-14 35,-57 90,-60 93,-60 6,0 10,4 10,10 0,5 -4,10 -10,10 -1,0 -47,3 -75,50 -2,4 -6,5 -9,5z"/>
    <path class="fil13" d="M4877 2976c-2,0 -3,0 -5,-1 -49,-28 -90,-6 -90,-6 -6,2 -12,0 -14,-5 -3,-5 -1,-11 4,-13 2,-1 52,-27 110,6 5,3 7,9 4,14 -2,3 -5,5 -9,5z"/>
    <path class="fil11" d="M3901 4338c-41,68 -85,138 -126,208 -42,69 -83,139 -122,210 -38,70 -77,141 -109,211 -8,17 -15,34 -23,52 -7,17 -13,33 -20,50 -4,12 -5,20 -6,24 0,4 0,3 -2,2 -4,-2 6,12 31,22 24,11 57,19 92,25 71,12 150,14 229,13 158,-3 323,-18 483,-40l32 135c-164,51 -328,88 -501,109 -87,10 -175,16 -269,9 -47,-4 -96,-11 -150,-29 -27,-10 -55,-22 -84,-42 -28,-19 -58,-47 -79,-84 -21,-37 -31,-81 -31,-118 -1,-37 6,-71 13,-99 7,-22 13,-45 21,-67 7,-21 15,-43 23,-64 33,-83 68,-161 107,-237 39,-77 80,-151 122,-225 43,-73 85,-145 133,-217l236 152z"/>
    <path class="fil11" d="M4264 5146l205 -108 8 228c0,0 -143,52 -228,-15l15 -105z"/>
    <polygon class="fil11" points="4594,5054 4563,5256 4477,5266 4469,5038 "/>
    <path class="fil12" d="M3751 3944c-129,22 -309,392 -309,392l399 345c0,0 183,-333 170,-501 -12,-143 -96,-265 -260,-236z"/>
    <path class="fil12" d="M2457 10242c-3,0 -6,-1 -10,-2 -31,-10 -51,-67 -60,-100 -1,-2 0,-4 2,-6 1,-1 3,-1 5,0 10,5 92,49 95,81 0,5 -1,12 -9,18 -8,6 -15,9 -23,9zm-57 -93l0 0c15,45 33,76 51,81 7,3 15,1 23,-5 4,-3 5,-7 4,-9 -1,-20 -49,-51 -78,-67z"/>
    <path class="fil12" d="M2470 10162c-29,0 -65,-10 -81,-19 -1,-1 -2,-3 -2,-5 0,-2 1,-3 2,-4 3,-2 68,-38 103,-25 10,3 16,9 20,18 5,14 -1,22 -5,25 -8,7 -22,10 -37,10zm-67 -24l0 0c28,12 82,19 97,7 3,-3 5,-6 2,-14 -2,-6 -7,-10 -13,-12 -24,-9 -67,10 -86,19z"/>
    <path class="fil12" d="M4168 10892c-29,0 -61,-6 -84,-11 -2,0 -3,-2 -4,-4 0,-2 1,-4 3,-5 13,-6 125,-58 153,-39 3,3 8,7 7,16 -1,12 -6,22 -15,29 -14,10 -36,14 -60,14zm-66 -18l0 0c33,7 94,15 120,-4 7,-6 10,-13 11,-22 0,-4 -2,-5 -3,-6 -16,-11 -82,12 -128,32z"/>
    <path class="fil12" d="M4085 10881c-1,0 -2,0 -3,-1 -1,-1 -2,-3 -2,-5 2,-5 27,-115 88,-108 15,2 19,10 20,16 3,28 -67,84 -101,98 0,0 -1,0 -2,0zm77 -104l0 0c-39,0 -61,64 -69,90 37,-19 87,-65 85,-83 -1,-1 -1,-5 -12,-7 -1,0 -3,0 -4,0z"/>
    <path class="fil13" d="M4592 3098l46 -24c0,0 -18,44 -46,24z"/>
    <path class="fil18" d="M9985 4096c-1,21 -3,36 -5,54 -2,17 -5,33 -8,49 -5,33 -12,66 -19,98 -14,64 -32,128 -53,190 -44,125 -99,247 -173,359l-29 42 -7 10 -4 6 -7 9c-9,11 -18,22 -29,31 -41,38 -86,57 -126,69 -81,24 -152,24 -220,20 -137,-10 -259,-42 -382,-87l33 -133c117,10 239,16 348,7 55,-4 108,-14 144,-30 17,-8 28,-18 32,-23 -4,5 17,-31 29,-53 54,-97 96,-203 129,-312 17,-54 31,-110 43,-165 7,-28 12,-56 17,-84l7 -41 5 -38 275 22z"/>
    <path class="fil19" d="M10049 3916c7,172 -60,482 -60,482l-426 -51c0,0 -16,-455 67,-565 139,-184 413,-29 419,134z"/>
    <path class="fil18" d="M9013 4831l-255 -91 53 191c0,0 119,70 188,-9l14 -91z"/>
    <polygon class="fil18" points="8670,4789 8635,4924 8811,4931 8758,4740 "/>
    <path class="fil20" d="M7471 5682c740,0 1340,-599 1340,-1339 0,-740 -600,-1340 -1340,-1340l-173 0 0 2679 173 0z"/>
    <path class="fil20" d="M8637 4343c0,740 -599,1339 -1339,1339 -740,0 -1340,-599 -1340,-1339 0,-740 600,-1340 1340,-1340 740,0 1339,600 1339,1340z"/>
    <path class="fil21" d="M8637 4343c0,740 -599,1339 -1339,1339 -740,0 -1340,-599 -1340,-1339 0,-740 600,-1340 1340,-1340 740,0 1339,600 1339,1340z"/>
    <path class="fil22" d="M8485 4343c0,656 -531,1188 -1187,1188 -656,0 -1188,-532 -1188,-1188 0,-656 532,-1188 1188,-1188 656,0 1187,532 1187,1188z"/>
    <path class="fil5" d="M7908 4419c-45,-56 -116,-96 -213,-119 64,-22 112,-52 145,-90 49,-57 74,-125 74,-204 0,-94 -34,-174 -104,-238 -69,-64 -168,-96 -298,-96l-79 0 0 -225 -150 0 0 225 -187 0 0 -225 -150 0 0 225 -209 0 -118 0 0 272 118 0 0 798 -118 0 0 271 118 0 209 0 0 226 150 0 0 -226 187 0 0 226 150 0 0 -226 19 0c31,0 93,-6 186,-18 70,-9 122,-24 157,-44 56,-32 101,-76 133,-132 32,-55 48,-118 48,-187 0,-85 -22,-156 -68,-213zm-753 -475l0 0 183 0c63,0 107,11 132,33 25,22 38,52 38,91 0,42 -13,75 -38,97 -25,22 -70,33 -135,33l-180 0 0 -254zm362 743l0 0c-29,26 -80,38 -151,38l-211 0 0 -271 210 0c73,0 124,12 153,36 28,24 43,56 43,95 0,43 -15,77 -44,102z"/>
    <path class="fil13" d="M8772 3033c0,20 -11,36 -24,36 -13,0 -24,-16 -24,-36 1,-20 12,-36 25,-36 13,0 23,16 23,36z"/>
    <path class="fil13" d="M8755 2998l-49 -13c0,0 25,37 49,13z"/>
    <path class="fil23" d="M8755 3052c0,0 -35,86 -74,128 27,25 72,13 72,13l2 -141z"/>
    <path class="fil13" d="M8747 2900c2,1 4,0 6,0 50,-17 84,9 86,10 5,4 12,3 16,-2 4,-6 3,-13 -2,-17 -2,-1 -45,-34 -108,-14 -6,2 -9,9 -7,15 1,5 5,7 9,8z"/>
    <path class="fil18" d="M9362 3245c-13,150 37,395 150,478 0,0 -86,158 -358,194 -300,41 -159,-128 -159,-128 159,-61 142,-181 102,-290l265 -254z"/>
    <path class="fil18" d="M8817 4093c-33,159 -75,309 -124,461 -48,151 -104,301 -172,447l-13 27c-5,11 -11,24 -18,35 -12,22 -26,42 -40,61 -28,37 -57,69 -87,99 -59,61 -122,112 -186,162 -128,97 -261,181 -402,257l-75 -114c116,-97 233,-199 341,-303 53,-51 105,-105 150,-159 23,-27 43,-55 60,-81 8,-14 15,-26 21,-38l8 -18 9 -26c28,-70 52,-141 76,-212 23,-72 45,-144 67,-217 41,-145 80,-294 114,-438l271 57z"/>
    <path class="fil18" d="M7789 5632l-142 93 -70 -120c0,0 139,-166 223,-48l-11 75z"/>
    <polygon class="fil18" points="7752,5509 7672,5496 7582,5516 7559,5542 7618,5550 7633,5573 7653,5586 "/>
    <polygon class="fil18" points="7507,5737 7429,5674 7577,5605 7647,5725 "/>
    <polygon class="fil18" points="9805,10837 9557,10855 9483,10286 9731,10267 "/>
    <polygon class="fil18" points="11394,10113 11179,10244 10821,9798 11036,9667 "/>
    <path class="fil13" d="M11114 10196l204 -196c7,-7 18,-8 26,-2l174 134c18,14 19,43 1,60 -72,67 -110,96 -200,182 -55,53 -130,136 -206,210 -75,71 -151,4 -126,-33 114,-167 97,-230 107,-315 2,-15 9,-29 20,-40z"/>
    <path class="fil13" d="M9541 10820l279 0c10,0 19,7 20,17l38 221c4,23 -16,44 -39,44 -97,-2 -144,-8 -267,-8 -75,0 -231,8 -335,8 -102,0 -113,-103 -70,-112 194,-42 269,-100 333,-155 12,-10 26,-15 41,-15z"/>
    <g>
     <polygon class="fil14" points="9483,10286 9524,10602 9769,10561 9731,10268 "/>
     <polygon class="fil14" points="11036,9667 10821,9798 10969,9982 11189,9857 "/>
    </g>
    <path class="fil24" d="M9930 5218c-194,26 -606,81 -1005,135 -389,-1409 -274,-1448 -274,-1448 0,0 103,-49 231,-91 5,-2 10,-3 14,-4 65,-20 79,-23 165,-42 148,-27 286,-47 456,-62 11,0 22,-1 33,-2 30,-2 61,-4 90,-5 20,-1 40,-1 59,-1 22,0 44,0 64,0 12,0 23,0 34,1 82,1 144,73 135,155 -86,741 -58,985 -2,1364z"/>
    <path class="fil14" d="M8827 4338c28,196 -23,356 -54,431 -67,-274 -103,-462 -121,-590 77,-5 156,24 175,159z"/>
    <path class="fil19" d="M8659 3901c-172,99 -291,333 -327,470l366 335c0,0 237,-455 175,-579 -64,-128 -148,-263 -214,-226z"/>
    <path class="fil18" d="M9446 2969c-18,244 -21,348 -147,476 -191,191 -490,123 -546,-120 -50,-219 -11,-583 232,-683 240,-100 480,82 461,327z"/>
    <path class="fil10" d="M8940 3067c25,-87 -171,-186 -192,-319 -27,-173 107,-313 233,-232 50,-116 394,-164 584,-21 212,161 -48,332 164,474 169,114 192,184 87,321 -79,103 126,81 74,257 -52,175 -1112,239 -972,-154 124,-347 -30,-148 22,-326z"/>
    <path class="fil18" d="M8999 3048c0,44 -19,92 -44,126 -38,52 -83,38 -94,-10 -10,-43 -2,-121 47,-157 48,-35 91,-10 91,41z"/>
    <path class="fil13" d="M9806 3299c-2,0 -3,-1 -4,-2 -1,-2 0,-5 2,-6 66,-38 102,-91 100,-148 -1,-72 -61,-145 -159,-194 -116,-59 -107,-139 -98,-217 9,-77 18,-158 -96,-224 -2,-1 -3,-3 -1,-5 1,-3 4,-3 6,-2 118,69 109,152 100,232 -9,78 -18,152 93,208 101,51 162,126 164,202 2,60 -36,116 -105,156 -1,0 -1,0 -2,0z"/>
    <path class="fil19" d="M9190 5317c0,0 390,1649 573,2596 192,1000 1115,2041 1115,2041l313 -175c0,0 -580,-950 -769,-1883 -382,-1895 -123,-2276 -492,-2678l-740 99z"/>
    <polygon class="fil13" points="10847,9983 11238,9765 11181,9649 10742,9851 "/>
    <path class="fil14" d="M9398 5676c303,263 270,1197 238,1619 -127,-599 -280,-1266 -369,-1652 31,-24 75,-16 131,33z"/>
    <path class="fil12" d="M11029 10310c3,1 6,1 9,1 31,-1 67,-48 86,-77 1,-2 1,-4 0,-6 -2,-2 -4,-3 -7,-3 -10,2 -98,21 -110,51 -3,6 -2,13 3,19 5,8 12,13 19,15zm76 -70l0 0c-25,37 -50,59 -67,59 -7,0 -13,-3 -19,-10 -2,-4 -2,-7 -1,-9 6,-16 52,-31 87,-40z"/>
    <path class="fil19" d="M8940 5354c0,0 -175,1957 -80,2704 100,776 607,2466 607,2466l358 -46c0,0 -291,-1674 -343,-2443 -56,-839 194,-2780 194,-2780l-736 99z"/>
    <polygon class="fil13" points="9391,10545 9901,10479 9893,10328 9339,10382 "/>
    <path class="fil12" d="M11042 10233c27,7 61,8 78,4 2,-1 4,-2 4,-4 1,-2 0,-4 -1,-6 -2,-2 -51,-52 -87,-51 -10,1 -18,5 -24,12 -9,12 -6,21 -3,26 6,8 18,15 33,19zm64 -6l0 0c-30,4 -78,-5 -87,-19 -2,-3 -3,-6 2,-12 4,-5 9,-8 16,-8 21,-1 52,24 69,39z"/>
    <path class="fil12" d="M9449 10863c27,0 57,-4 78,-8 2,-1 4,-3 5,-5 0,-3 -1,-5 -4,-6 -11,-6 -112,-57 -141,-40 -6,3 -9,9 -10,16 -1,11 3,21 12,28 12,12 35,15 60,15zm58 -17l0 0c-55,9 -95,7 -111,-7 -5,-4 -8,-11 -7,-19 0,-3 1,-4 3,-6 17,-9 74,13 115,32z"/>
    <path class="fil12" d="M9526 10855c1,0 2,-1 3,-1 2,-2 3,-4 3,-6 -1,-4 -12,-106 -68,-106 -1,0 -3,0 -5,1 -16,1 -20,9 -22,16 -4,28 56,82 86,95 1,1 2,1 3,1zm-62 -101l0 0c36,0 50,59 54,84 -31,-18 -72,-60 -69,-77 0,-2 1,-6 11,-7 2,0 3,0 4,0z"/>
    <g>
     <path class="fil15" d="M9939 5158l54 83c5,6 -3,14 -14,16l-1054 141c-9,2 -17,-2 -18,-7l-19 -89c-1,-6 6,-12 16,-13l1017 -137c8,-1 15,1 18,6z"/>
     <path class="fil25" d="M9939 5158l54 83c5,6 -3,14 -14,16l-1054 141c-9,2 -17,-2 -18,-7l-19 -89c-1,-6 6,-12 16,-13l1017 -137c8,-1 15,1 18,6z"/>
    </g>
    <path class="fil19" d="M9814 5289l27 -4c6,-1 9,-4 9,-7l-25 -115c-1,-3 -6,-5 -12,-4l-27 3c-5,1 -9,4 -8,8l25 114c0,3 6,6 11,5z"/>
    <path class="fil19" d="M9126 5383l27 -4c5,-1 9,-4 9,-7l-26 -115c0,-3 -5,-5 -11,-4l-27 3c-5,1 -9,4 -9,8l26 114c0,3 5,5 11,5z"/>
   </g>
  </g>
 </g>
</svg>
