<?xml version="1.0" encoding="UTF-8"?>
<!DOCTYPE svg PUBLIC "-//W3C//DTD SVG 1.1//EN" "http://www.w3.org/Graphics/SVG/1.1/DTD/svg11.dtd">
<!-- Creator: CorelDRAW X7 -->
<svg xmlns="http://www.w3.org/2000/svg" xml:space="preserve" width="13.4133in" height="11.4567in" version="1.1" style="shape-rendering:geometricPrecision; text-rendering:geometricPrecision; image-rendering:optimizeQuality; fill-rule:evenodd; clip-rule:evenodd"
viewBox="0 0 13413 11457"
 xmlns:xlink="http://www.w3.org/1999/xlink">
 <defs>
  <style type="text/css">
   <![CDATA[
    .str0 {stroke:#DDD8D4;stroke-width:27.3307}
    .str2 {stroke:white;stroke-width:16.3937}
    .str7 {stroke:#006633;stroke-width:18.6417}
    .str11 {stroke:#006633;stroke-width:27.1024}
    .str9 {stroke:#003333;stroke-width:21.2756;stroke-linecap:round;stroke-linejoin:round}
    .str10 {stroke:#003333;stroke-width:19.4016;stroke-linecap:round;stroke-linejoin:round}
    .str5 {stroke:#003333;stroke-width:13.7913;stroke-linecap:round;stroke-linejoin:round}
    .str1 {stroke:white;stroke-width:22.8701;stroke-linecap:round;stroke-linejoin:round}
    .str8 {stroke:#003333;stroke-width:17.0787;stroke-linecap:round;stroke-linejoin:round}
    .str6 {stroke:#003333;stroke-width:17.1063;stroke-linecap:round;stroke-linejoin:round}
    .str4 {stroke:#006633;stroke-width:17.1299;stroke-linecap:round;stroke-linejoin:round}
    .str3 {stroke:#33CC33;stroke-width:17.1299;stroke-linecap:round;stroke-linejoin:round}
    .fil0 {fill:none}
    .fil1 {fill:none;fill-rule:nonzero}
    .fil9 {fill:#003333;fill-rule:nonzero}
    .fil4 {fill:#006633;fill-rule:nonzero}
    .fil6 {fill:#009933;fill-rule:nonzero}
    .fil13 {fill:#261A42;fill-rule:nonzero}
    .fil18 {fill:#282828;fill-rule:nonzero}
    .fil15 {fill:#339966;fill-rule:nonzero}
    .fil2 {fill:#33CC33;fill-rule:nonzero}
    .fil8 {fill:#33CC66;fill-rule:nonzero}
    .fil12 {fill:#362F5E;fill-rule:nonzero}
    .fil19 {fill:#B68775;fill-rule:nonzero}
    .fil14 {fill:#E6E6E6;fill-rule:nonzero}
    .fil3 {fill:#E9D154;fill-rule:nonzero}
    .fil5 {fill:#EDEDED;fill-rule:nonzero}
    .fil11 {fill:#F2978E;fill-rule:nonzero}
    .fil10 {fill:#FFB1A5;fill-rule:nonzero}
    .fil16 {fill:#FFBD9C;fill-rule:nonzero}
    .fil7 {fill:white;fill-rule:nonzero}
    .fil20 {fill:black;fill-rule:nonzero;fill-opacity:0.501961}
    .fil17 {fill:#996633;fill-rule:nonzero;fill-opacity:0.501961}
   ]]>
  </style>
 </defs>
 <g id="Layer_x0020_1">
  <metadata id="CorelCorpID_0Corel-Layer"/>
  <g id="_772516624">
   <rect class="fil0" width="13413" height="11457"/>
   <g>
    <line class="fil1 str0" x1="1460" y1="4132" x2="11892" y2= "4132" />
    <line class="fil1 str0" x1="11756" y1="9903" x2="1596" y2= "9903" />
    <path class="fil1 str0" d="M1596 9903c-75,0 -136,-61 -136,-137"/>
    <line class="fil1 str0" x1="1460" y1="9766" x2="1460" y2= "3584" />
    <path class="fil1 str0" d="M1460 3584c0,-75 61,-136 136,-136"/>
    <line class="fil1 str0" x1="1596" y1="3448" x2="11756" y2= "3448" />
    <path class="fil1 str0" d="M11756 3448c75,0 136,61 136,136"/>
    <line class="fil1 str0" x1="11892" y1="3584" x2="11892" y2= "9766" />
    <path class="fil1 str0" d="M11892 9766c0,76 -61,137 -136,137"/>
    <path class="fil2" d="M2147 3797c0,52 -43,95 -95,95 -53,0 -96,-43 -96,-95 0,-53 43,-96 96,-96 52,0 95,43 95,96z"/>
    <path class="fil3" d="M2518 3797c0,52 -43,95 -95,95 -53,0 -96,-43 -96,-95 0,-53 43,-96 96,-96 52,0 95,43 95,96z"/>
    <path class="fil4" d="M2889 3797c0,52 -43,95 -95,95 -53,0 -96,-43 -96,-95 0,-53 43,-96 96,-96 52,0 95,43 95,96z"/>
    <path class="fil5" d="M13248 6435l-2452 0c-69,0 -125,-56 -125,-125l0 -2268c0,-69 56,-125 125,-125l2452 0c69,0 125,56 125,125l0 2268c0,69 -56,125 -125,125z"/>
    <line class="fil1 str0" x1="13248" y1="6435" x2="10796" y2= "6435" />
    <path class="fil1 str0" d="M10796 6435c-69,0 -125,-56 -125,-125"/>
    <line class="fil1 str0" x1="10671" y1="6310" x2="10671" y2= "4042" />
    <path class="fil1 str0" d="M10671 4042c0,-69 56,-125 125,-125"/>
    <line class="fil1 str0" x1="10796" y1="3917" x2="13248" y2= "3917" />
    <path class="fil1 str0" d="M13248 3917c69,0 125,56 125,125"/>
    <line class="fil1 str0" x1="13373" y1="4042" x2="13373" y2= "6310" />
    <path class="fil1 str0" d="M13373 6310c0,69 -56,125 -125,125"/>
    <path class="fil6" d="M11389 5780l1274 0c69,0 126,-56 126,-126l0 -1044c0,-70 -57,-126 -126,-126l-1274 0c-70,0 -126,56 -126,126l0 1044c0,70 56,126 126,126z"/>
    <polygon class="fil1 str1" points="12374,5348 11777,5348 11670,5348 11670,4875 12374,4875 12374,4993 "/>
    <polyline class="fil1 str1" points="11670,4875 12022,5153 12374,4875 "/>
    <path class="fil5" d="M2458 8334l-2339 0c-66,0 -119,-53 -119,-119l0 -2039c0,-66 53,-120 119,-120l2339 0c66,0 119,54 119,120l0 2039c0,66 -53,119 -119,119z"/>
    <line class="fil1 str0" x1="2458" y1="8334" x2="119" y2= "8334" />
    <path class="fil1 str0" d="M119 8334c-66,0 -119,-53 -119,-119"/>
    <line class="fil1 str0" x1="0" y1="8215" x2="0" y2= "6176" />
    <path class="fil1 str0" d="M0 6176c0,-66 53,-120 119,-120"/>
    <line class="fil1 str0" x1="119" y1="6056" x2="2458" y2= "6056" />
    <path class="fil1 str0" d="M2458 6056c66,0 119,54 119,120"/>
    <line class="fil1 str0" x1="2577" y1="6176" x2="2577" y2= "8215" />
    <path class="fil1 str0" d="M2577 8215c0,66 -53,119 -119,119"/>
    <path class="fil2" d="M1889 7895l-1213 0c-77,0 -139,-62 -139,-139l0 -1171c0,-76 62,-138 139,-138l1213 0c76,0 139,62 139,138l0 1171c0,77 -63,139 -139,139z"/>
    <path class="fil7" d="M994 6886c-164,164 -164,433 0,596 163,164 432,164 595,0 164,-163 164,-432 0,-596 -163,-163 -432,-163 -595,0zm595 61l0 0 -135 0c-13,-42 -31,-84 -52,-126 74,22 139,67 187,126zm-452 213l0 0c0,-55 6,-109 20,-164l269 0c14,55 20,109 20,164l-309 0zm308 49l0 0c-4,54 -14,109 -29,163l-249 0c-15,-54 -25,-109 -28,-163l306 0zm-153 -405l0 0c20,0 40,2 59,5 26,46 46,92 61,138l-241 0c15,-46 35,-92 61,-138 19,-3 39,-5 60,-5zm-111 17l0 0c-21,42 -39,84 -52,126l-134 0c47,-59 112,-104 186,-126zm-220 175l0 0 154 0c-14,55 -21,109 -22,164l-181 0c4,-59 21,-115 49,-164zm0 376l0 0c-28,-48 -45,-104 -49,-163l182 0c3,54 11,109 26,163l-159 0zm34 50l0 0 139 0c14,42 32,85 52,128 -76,-22 -143,-68 -191,-128zm297 143l0 0c-17,0 -34,-2 -50,-4 -23,-46 -43,-93 -59,-139l217 0c-16,46 -35,93 -59,139 -16,2 -33,4 -49,4zm105 -15l0 0c21,-43 38,-86 52,-128l140 0c-49,60 -116,106 -192,128zm225 -178l0 0 -159 0c15,-54 23,-109 26,-163l182 0c-4,59 -21,115 -49,163zm49 -212l0 0 -181 0c-1,-55 -8,-109 -22,-164l154 0c28,49 45,105 49,164z"/>
    <path class="fil8" d="M2318 2852l-2118 0c-44,0 -79,-35 -79,-79 0,-44 35,-79 79,-79l2118 0c44,0 80,35 80,79 0,44 -36,79 -80,79z"/>
    <path class="fil6" d="M13334 8027l-1028 0c-44,0 -79,-36 -79,-80 0,-43 35,-79 79,-79l1028 0c44,0 79,36 79,79 0,44 -35,80 -79,80z"/>
    <path class="fil2" d="M12614 8943l-126 0c-33,0 -59,-26 -59,-59l0 -118c0,-33 26,-60 59,-60l126 0c33,0 60,27 60,60l0 118c0,33 -27,59 -60,59z"/>
    <path class="fil2" d="M705 9492l-126 0c-33,0 -60,-26 -60,-59l0 -118c0,-33 27,-60 60,-60l126 0c33,0 59,27 59,60l0 118c0,33 -26,59 -59,59z"/>
    <path class="fil8" d="M10321 2770l-2091 0c-35,0 -63,-28 -63,-63l0 -510c0,-35 28,-63 63,-63l2091 0c34,0 63,28 63,63l0 510c0,35 -29,63 -63,63z"/>
    <line class="fil1 str2" x1="8469" y1="2361" x2="9956" y2= "2361" />
    <line class="fil1 str2" x1="8469" y1="2513" x2="9074" y2= "2513" />
    <polygon class="fil8" points="8408,2698 8408,2946 8720,2698 "/>
    <path class="fil6" d="M5183 2808l-1012 0c-98,0 -178,-80 -178,-178l0 -941c0,-75 61,-135 135,-135l1055 0c75,0 135,60 135,135l0 984c0,75 -60,135 -135,135z"/>
    <path class="fil7" d="M4965 2274l-75 -76c-14,-14 -31,-23 -49,-23 -17,0 -35,9 -48,22l-44 43c-2,-1 -5,-3 -8,-4 -5,-3 -9,-4 -13,-7 -41,-25 -77,-59 -112,-102 -16,-20 -28,-39 -35,-55 11,-10 20,-21 30,-30 4,-4 8,-8 12,-12 15,-15 23,-32 23,-50 0,-17 -8,-35 -23,-50l-38 -38c-4,-4 -8,-8 -12,-13 -8,-8 -18,-18 -26,-26 -13,-13 -31,-21 -48,-21 -18,0 -34,7 -49,21l-47 48c-17,17 -28,40 -31,66 -3,40 8,78 18,102 21,62 55,117 105,176 60,72 132,128 215,169 31,15 74,32 122,36 2,0 5,0 9,0 32,0 59,-12 81,-35 0,0 0,0 1,-1 7,-8 15,-16 25,-24 5,-6 12,-12 17,-18 28,-29 28,-70 0,-98zm-31 70l0 0c-5,5 -11,11 -16,16 -10,8 -18,18 -27,27 -14,13 -28,20 -49,20 -2,0 -4,0 -6,0 -41,-3 -78,-19 -105,-32 -77,-38 -145,-90 -201,-158 -46,-55 -77,-108 -99,-163 -13,-32 -18,-58 -16,-83 2,-15 7,-29 19,-39l46 -46c4,-4 11,-10 19,-10 8,0 13,4 19,10 8,8 16,16 24,24 4,4 8,9 13,13l38 38c4,4 10,12 10,19 0,8 -6,15 -10,19 -4,4 -8,8 -12,12 -12,12 -23,23 -34,34 0,0 0,0 -1,1 -13,14 -11,26 -8,34l0 1c9,24 24,46 44,73 38,47 79,83 123,112 5,4 12,6 18,9 5,3 9,4 13,7l1 1c14,7 27,4 38,-7l47 -47c4,-4 11,-9 19,-9 7,0 14,5 18,9l75 76c12,12 12,25 0,39z"/>
    <path class="fil9" d="M9586 7556l-762 -102 6 76 -652 87c0,0 -286,717 -179,2269l749 0 101 -1247 68 0 98 1247 746 0c109,-1570 -175,-2330 -175,-2330z"/>
    <line class="fil1 str3" x1="8607" y1="8639" x2="9160" y2= "8639" />
    <path class="fil10" d="M10032 6444c-66,-105 -432,-101 -451,-103 -99,-12 63,777 269,1466 40,132 185,201 312,147 1,-1 3,-1 4,-2 101,-42 158,-149 138,-256 -98,-520 -197,-1132 -272,-1252z"/>
    <polygon class="fil11" points="10119,6729 9651,6910 9607,6688 10092,6567 "/>
    <path class="fil11" d="M10207 7173c0,0 -221,297 -211,284 11,-14 174,-481 174,-481l37 197z"/>
    <path class="fil10" d="M10524 6773l-635 823c-83,108 -57,264 58,339l0 0c114,74 267,35 332,-85l529 -976 -284 -101z"/>
    <path class="fil10" d="M10689 6984c-138,-44 -214,-192 -169,-330 44,-138 192,-213 330,-169 138,45 213,192 169,330 -45,138 -192,214 -330,169z"/>
    <path class="fil10" d="M10960 6577c0,0 72,-74 -55,-127 -127,-52 -285,-40 -385,204l440 -77z"/>
    <path class="fil12" d="M11092 6057l266 115c15,7 20,24 12,39l-350 654c-8,15 -26,22 -41,16l-266 -115c-15,-7 -20,-24 -12,-39l350 -654c8,-15 26,-23 41,-16z"/>
    <path class="fil13" d="M11067 6045l266 116c15,6 20,24 12,39l-350 654c-8,15 -27,22 -42,15l-266 -115c-14,-6 -20,-24 -12,-39l350 -654c8,-15 27,-22 42,-16z"/>
    <polygon class="fil14" points="11037,6112 11271,6213 10985,6746 10752,6645 "/>
    <polygon class="fil7" points="11271,6213 10752,6645 11037,6112 "/>
    <path class="fil10" d="M10829 6429c0,0 59,11 112,42 24,13 36,40 29,66 -6,24 -26,42 -50,45l-138 18c0,0 -73,124 -167,138l87 -218 127 -91z"/>
    <path class="fil15" d="M9062 5407c-15,0 981,138 1145,1273l-516 80 -105 857 -1442 0 -286 -1584c0,0 320,-458 913,-626l291 0z"/>
    <line class="fil1 str4" x1="9691" y1="6760" x2="9735" y2= "6264" />
    <path class="fil16" d="M9157 5423l0 -394 -462 0 0 399c-24,7 -63,21 -125,50l361 215 369 -215c0,0 -59,-34 -143,-55z"/>
    <path class="fil17" d="M8690 5077c0,0 83,220 305,201 204,-17 171,-323 171,-323l-476 122z"/>
    <path class="fil16" d="M8489 4784c-73,65 -235,-184 -165,-254 70,-70 124,40 124,40l31 74 24 101 5 27 -19 12z"/>
    <path class="fil1 str5" d="M8358 4618c0,0 55,-24 104,55"/>
    <path class="fil16" d="M9346 4776c66,72 249,-163 185,-239 -64,-75 -126,30 -126,30l-38 71 -32 99 -8 25 19 14z"/>
    <path class="fil1 str5" d="M9490 4623c0,0 -53,-30 -108,45"/>
    <path class="fil9" d="M8362 4292c0,330 251,487 562,487 310,0 562,-157 562,-487 0,-330 -252,-554 -562,-554 -311,0 -562,224 -562,554z"/>
    <path class="fil16" d="M8438 4315c0,203 29,378 57,502 28,121 107,206 218,274l20 13c118,72 270,74 390,4 120,-70 205,-163 231,-293 47,-237 52,-500 52,-500 0,0 45,-511 -477,-501 -522,10 -491,501 -491,501z"/>
    <line class="fil1 str6" x1="8890" y1="4607" x2="8890" y2= "4678" />
    <path class="fil1 str6" d="M8890 4678c0,4 1,8 3,12 5,14 22,21 37,17"/>
    <line class="fil1 str6" x1="8930" y1="4707" x2="8963" y2= "4699" />
    <path class="fil9" d="M8807 4333l-259 61c0,0 12,-66 118,-90 106,-24 141,29 141,29z"/>
    <path class="fil9" d="M9038 4333l250 61c0,0 -11,-66 -114,-90 -102,-24 -136,29 -136,29z"/>
    <path class="fil9" d="M8753 4523c0,24 -20,44 -44,44 -24,0 -44,-20 -44,-44 0,-24 20,-43 44,-43 24,0 44,19 44,43z"/>
    <path class="fil9" d="M9167 4523c0,24 -19,44 -43,44 -25,0 -44,-20 -44,-44 0,-24 19,-43 44,-43 24,0 43,19 43,43z"/>
    <path class="fil7" d="M8753 4790l337 0c0,0 -150,181 -337,0z"/>
    <path class="fil1 str7" d="M8876 4540c0,103 -83,186 -186,186 -102,0 -186,-83 -186,-186 0,-102 84,-186 186,-186 103,0 186,84 186,186"/>
    <path class="fil1 str7" d="M9333 4540c0,103 -83,186 -186,186 -102,0 -186,-83 -186,-186 0,-102 84,-186 186,-186 103,0 186,84 186,186"/>
    <path class="fil1 str7" d="M8876 4540c0,0 44,-41 85,0"/>
    <line class="fil1 str7" x1="8504" y1="4540" x2="8446" y2= "4539" />
    <line class="fil1 str7" x1="9333" y1="4540" x2="9392" y2= "4539" />
    <path class="fil9" d="M9399 4485c0,0 -208,-282 -160,-568 0,0 155,78 195,279 40,201 -35,289 -35,289z"/>
    <path class="fil9" d="M8438 4504c0,0 242,-320 194,-606 0,0 -168,97 -208,298 -41,201 14,308 14,308z"/>
    <path class="fil9" d="M9382 4029c0,0 -268,294 -1001,244 0,0 112,-431 467,-477 0,0 410,-49 534,233z"/>
    <path class="fil9" d="M9713 3687c0,193 -157,350 -350,350 -193,0 -350,-157 -350,-350 0,-194 157,-351 350,-351 193,0 350,157 350,351z"/>
    <path class="fil9" d="M5090 7555l-652 -87 6 -75 -763 101c0,0 -291,780 -170,2392l737 0 102 -1309 68 0 106 1309 739 0c120,-1595 -173,-2331 -173,-2331z"/>
    <path class="fil9" d="M5038 4383c-89,-104 -159,-225 -219,-395 -65,-183 -276,-108 -276,-108 0,0 -176,-227 -440,-148 -265,79 -357,267 -363,491 -5,224 -181,259 -317,518 -239,458 164,843 898,736l1 -7c72,22 161,31 269,25 881,-52 796,-701 447,-1112z"/>
    <path class="fil16" d="M4749 4722c72,66 234,-184 164,-254 -70,-70 -123,40 -123,40l-31 75 -24 100 -5 27 19 12z"/>
    <path class="fil1 str5" d="M4880 4557c0,0 -55,-25 -104,54"/>
    <path class="fil16" d="M3892 4714c-67,72 -249,-163 -185,-238 64,-76 126,29 126,29l38 71 32 99 7 26 -18 13z"/>
    <path class="fil1 str5" d="M3748 4561c0,0 53,-29 108,46"/>
    <path class="fil9" d="M4876 4231c0,330 -252,486 -562,486 -310,0 -562,-156 -562,-486 0,-330 252,-555 562,-555 310,0 562,225 562,555z"/>
    <polygon class="fil16" points="4543,5565 4081,5565 4081,4967 4543,4967 "/>
    <path class="fil17" d="M4013 4930c0,0 129,256 287,296 43,11 88,7 129,-7 59,-21 135,-110 148,-208l6 -56c0,0 -282,153 -570,-25z"/>
    <path class="fil16" d="M4800 4254c0,202 -29,377 -58,501 -27,121 -106,206 -217,275l-21 12c-117,72 -269,74 -389,4 -120,-70 -205,-163 -231,-293 -47,-237 -52,-499 -52,-499 0,0 -45,-512 477,-502 522,10 491,502 491,502z"/>
    <line class="fil1 str8" x1="4279" y1="4573" x2="4279" y2= "4615" />
    <path class="fil1 str8" d="M4279 4615c0,4 1,8 3,12 5,14 22,21 37,17"/>
    <line class="fil1 str8" x1="4319" y1="4644" x2="4352" y2= "4636" />
    <path class="fil9" d="M4388 4296l278 66c0,0 -13,-72 -126,-98 -114,-26 -152,32 -152,32z"/>
    <path class="fil9" d="M4242 4296l-281 66c0,0 13,-72 128,-98 115,-26 153,32 153,32z"/>
    <path class="fil9" d="M4141 4468c0,24 -19,44 -43,44 -24,0 -44,-20 -44,-44 0,-24 20,-43 44,-43 24,0 43,19 43,43z"/>
    <path class="fil9" d="M4556 4468c0,24 -19,44 -44,44 -24,0 -43,-20 -43,-44 0,-24 19,-43 43,-43 25,0 44,19 44,43z"/>
    <path class="fil7" d="M4113 4717l384 0c0,0 -28,106 -202,106 -132,0 -182,-106 -182,-106z"/>
    <path class="fil9" d="M3839 4423c0,0 208,-282 160,-568 0,0 -155,78 -195,279 -41,201 35,289 35,289z"/>
    <path class="fil9" d="M4800 4414c0,0 -242,-292 -194,-578 0,0 168,97 208,298 41,201 -14,280 -14,280z"/>
    <path class="fil9" d="M3856 3968c0,0 239,322 973,271 0,0 -84,-459 -439,-505 0,0 -411,-49 -534,234z"/>
    <path class="fil10" d="M3188 8971c-11,17 610,-2702 426,-2660 -17,3 -340,33 -388,131 -139,283 -239,2508 -239,2508l201 21z"/>
    <path class="fil10" d="M2987 8950c0,0 -100,465 278,515 25,4 49,-11 58,-35l1 -3c9,-26 -4,-54 -30,-66 -61,-27 -157,-97 -110,-255 0,0 55,-7 85,95 8,26 37,40 62,27 17,-8 26,-26 24,-45 -10,-71 -45,-243 -183,-289l-185 56z"/>
    <path class="fil11" d="M3114 7095c0,0 358,504 360,494 2,-10 125,-707 125,-707l-434 -188 -51 401z"/>
    <path class="fil15" d="M4108 5467c16,0 -884,16 -1048,1152l517 79 104 857 1442 0 286 -1584c0,0 -203,-343 -797,-511l-504 7z"/>
    <path class="fil16" d="M3669 5604c0,0 127,169 648,169 516,0 648,-178 648,-178 0,0 -305,-170 -658,-225 0,0 -315,57 -638,234z"/>
    <polygon class="fil9" points="5438,9202 5439,9886 6620,9886 6646,9202 "/>
    <polygon class="fil9" points="7871,9202 7871,9886 6689,9886 6663,9202 "/>
    <polygon class="fil9" points="6101,9886 6101,9202 7259,9202 7259,9886 "/>
    <path class="fil10" d="M8579 7225c68,753 -1,1306 15,2661l-672 0 -95 -2537 752 -124z"/>
    <path class="fil11" d="M7909 7824c0,0 414,-38 698,-224l-8 -165 -690 94 0 295z"/>
    <path class="fil8" d="M7245 5458c0,0 1315,331 1554,2001 0,0 -644,279 -1289,159l145 -559 -410 -1601z"/>
    <path class="fil10" d="M3316 6153l979 1156 -299 844c0,0 -745,-1035 -1079,-1835l399 -165z"/>
    <path class="fil10" d="M3348 6194c0,0 -344,195 -431,124 -153,-122 -279,-572 -279,-572 0,0 643,-242 637,-233 -6,10 73,681 73,681z"/>
    <path class="fil10" d="M3348 6194c-6,-34 128,-408 174,-548 11,-34 -13,-71 -49,-78 -24,-4 -62,-1 -80,33l-161 276 116 317z"/>
    <path class="fil10" d="M3336 5791l-110 -551c-7,-37 -44,-62 -80,-55 -32,6 -53,34 -49,66l48 410 191 130z"/>
    <path class="fil10" d="M3116 5587l-150 -393c-13,-34 -51,-54 -86,-42 -29,10 -46,40 -39,70l112 455 163 -90z"/>
    <path class="fil10" d="M2955 5703l-191 -386c-17,-36 -61,-53 -96,-37 -34,14 -49,52 -34,87l151 365 170 -29z"/>
    <path class="fil10" d="M2638 5746l-150 -237c-12,-28 -1,-59 26,-71 26,-12 58,-3 75,21l196 273 -147 14z"/>
    <path class="fil1 str9" d="M3306 5749c0,0 -224,-23 -247,276"/>
    <path class="fil10" d="M3797 7759c0,0 184,637 551,552 367,-85 940,-868 940,-868l-129 -1339 -1030 1268 -332 387z"/>
    <path class="fil11" d="M4449 6978c0,0 348,525 644,710l195 -245 -750 -580 -89 115z"/>
    <path class="fil8" d="M5971 5430c0,0 -1022,230 -1566,1417 0,0 329,495 856,715l353 -432 357 -1700z"/>
    <path class="fil8" d="M5971 5426c-399,204 -650,476 -650,476l79 3469 2513 0 -8 -3451c0,0 -317,-310 -660,-462 -292,-128 -991,-178 -1274,-32z"/>
    <path class="fil1 str10" d="M7160 7116c-193,0 -350,-156 -350,-349"/>
    <polyline class="fil1 str10" points="6810,6767 6810,6417 7510,6417 7510,6767 "/>
    <path class="fil1 str10" d="M7510 6767c0,193 -157,349 -350,349"/>
    <line class="fil1 str10" x1="7909" y1="7631" x2="7942" y2= "6496" />
    <line class="fil1 str10" x1="5360" y1="7442" x2="5305" y2= "6458" />
    <path class="fil18" d="M6000 4159l-105 -519c-6,-42 -22,-107 -2,-168 33,-102 155,-296 364,-207l45 205c0,0 -217,44 -304,327l2 362z"/>
    <path class="fil9" d="M6241 3372c-3,68 -64,366 -275,475 0,0 -185,-397 275,-475z"/>
    <path class="fil19" d="M6983 5330l0 -880 -812 0 0 880 -241 110c0,0 56,365 656,373 599,9 659,-355 659,-355l-262 -128z"/>
    <path class="fil9" d="M6257 3265c0,0 149,-393 608,-184 278,126 356,296 389,416 11,40 15,103 12,140l-111 522 -434 -722 -419 33 -45 -205z"/>
    <path class="fil19" d="M7155 4159c0,0 55,-87 168,-45 113,43 62,317 -108,352 0,0 -60,13 -108,-28 0,0 42,-203 48,-279z"/>
    <path class="fil1 str10" d="M7300 4211c0,0 -94,-31 -161,108"/>
    <path class="fil19" d="M6000 4159c0,0 -55,-87 -168,-45 -112,43 -61,317 108,352 0,0 61,13 108,-28 0,0 -41,-203 -48,-279z"/>
    <path class="fil1 str10" d="M5855 4211c0,0 94,-31 161,108"/>
    <path class="fil19" d="M7166 3899c1,165 -16,510 -117,716 -96,192 -253,296 -460,302 -207,6 -361,-73 -484,-323 -124,-250 -118,-692 -118,-692 0,0 0,-590 583,-590 615,0 596,587 596,587z"/>
    <path class="fil20" d="M6177 4717c0,0 68,345 368,384 346,46 438,-375 438,-375 0,0 -153,191 -394,191 -269,0 -412,-200 -412,-200z"/>
    <line class="fil1 str10" x1="6535" y1="4144" x2="6535" y2= "4280" />
    <path class="fil1 str10" d="M6535 4280c0,6 1,12 3,17 8,20 32,30 53,24"/>
    <line class="fil1 str10" x1="6591" y1="4321" x2="6636" y2= "4309" />
    <path class="fil9" d="M6672 3814l357 92c0,0 -16,-100 -163,-136 -146,-36 -194,44 -194,44z"/>
    <path class="fil9" d="M6450 3814l-357 92c0,0 16,-100 162,-136 146,-36 195,44 195,44z"/>
    <path class="fil1 str10" d="M6379 4418c0,0 53,40 191,40 126,0 205,-40 205,-40"/>
    <path class="fil1 str11" d="M6521 4094c0,125 -101,226 -225,226 -125,0 -226,-101 -226,-226 0,-125 101,-226 226,-226 124,0 225,101 225,226"/>
    <path class="fil1 str11" d="M7075 4094c0,125 -101,226 -225,226 -125,0 -226,-101 -226,-226 0,-125 101,-226 226,-226 124,0 225,101 225,226"/>
    <path class="fil1 str11" d="M6521 4094c0,0 54,-50 103,0"/>
    <line class="fil1 str11" x1="6070" y1="4094" x2="5994" y2= "4092" />
    <line class="fil1 str11" x1="7075" y1="4094" x2="7160" y2= "4093" />
    <path class="fil9" d="M6177 3385c0,0 109,308 598,299 332,-7 411,234 411,234 0,0 -57,-538 -73,-533 -15,5 -505,-131 -505,-131l-431 131z"/>
    <path class="fil9" d="M6861 4078c0,30 -24,54 -53,54 -30,0 -53,-24 -53,-54 0,-29 23,-53 53,-53 29,0 53,24 53,53z"/>
    <path class="fil9" d="M6363 4078c0,30 -24,54 -53,54 -30,0 -53,-24 -53,-54 0,-29 23,-53 53,-53 29,0 53,24 53,53z"/>
   </g>
  </g>
 </g>
</svg>
